{"glyphs":{"0":{"ha":822,"x_min":49,"x_max":774,"o":"m 49 511 q 145 897 49 755 q 411 1039 241 1039 q 677 897 581 1039 q 774 511 774 755 q 677 124 774 267 q 411 -18 581 -18 q 145 124 241 -18 q 49 511 49 267 m 220 511 q 268 233 220 334 q 411 132 315 132 q 555 233 507 132 q 603 511 603 334 q 555 788 603 688 q 411 889 507 889 q 304 842 347 889 q 240 711 260 794 q 220 511 220 627 z "},"1":{"ha":534,"x_min":21,"x_max":428,"o":"m 21 802 l 422 1039 l 428 1039 l 428 0 l 260 0 l 260 745 l 93 650 l 21 802 z "},"2":{"ha":739,"x_min":46,"x_max":696,"o":"m 46 761 q 153 969 73 899 q 363 1039 233 1039 q 596 952 507 1039 q 685 726 685 865 q 657 570 685 640 q 568 421 629 500 l 363 151 l 696 151 l 696 0 l 56 0 l 56 8 l 427 509 q 496 623 477 576 q 515 730 515 670 q 473 845 515 803 q 363 888 430 888 q 254 848 294 888 q 199 725 214 808 l 46 761 z "},"3":{"ha":728,"x_min":37,"x_max":703,"o":"m 37 250 l 191 289 q 254 173 212 212 q 372 134 297 134 q 489 178 444 134 q 533 297 533 222 q 485 412 533 367 q 361 457 437 457 l 252 457 l 252 597 l 364 597 q 466 636 425 599 q 507 741 507 674 q 467 847 507 807 q 363 888 427 888 q 262 852 302 888 q 203 751 221 817 l 56 812 q 169 979 92 919 q 364 1039 247 1039 q 589 955 503 1039 q 675 741 675 871 q 547 528 675 592 q 661 438 619 498 q 703 296 703 378 q 613 68 703 155 q 374 -18 523 -18 q 37 250 111 -18 z "},"4":{"ha":787,"x_min":4,"x_max":757,"o":"m 4 172 l 4 178 l 624 1032 l 631 1032 l 631 311 l 757 311 l 757 172 l 631 172 l 631 0 l 463 0 l 463 172 l 4 172 m 264 309 l 469 309 l 469 596 l 264 309 z "},"5":{"ha":753,"x_min":52,"x_max":717,"o":"m 52 207 l 195 275 q 374 134 234 134 q 499 184 450 134 q 547 314 547 235 q 499 443 547 394 q 374 492 451 492 q 212 433 284 492 l 102 485 l 102 1021 l 654 1021 l 654 869 l 271 869 l 271 614 q 385 637 328 637 q 624 551 532 637 q 717 307 717 465 q 626 74 717 165 q 385 -18 535 -18 q 52 207 130 -18 z "},"6":{"ha":769,"x_min":41,"x_max":726,"o":"m 41 321 q 118 538 41 446 l 427 1021 l 615 1021 l 383 661 q 554 617 476 661 q 680 495 633 574 q 726 321 726 417 q 680 145 726 224 q 554 24 633 67 q 383 -18 476 -18 q 141 78 241 -18 q 41 321 41 174 m 214 321 q 262 184 214 237 q 383 132 310 132 q 506 184 457 132 q 555 321 555 237 q 506 458 555 404 q 383 511 457 511 q 262 458 311 511 q 214 321 214 404 z "},"7":{"ha":753,"x_min":36,"x_max":741,"o":"m 36 867 l 36 1021 l 741 1021 l 741 1013 l 237 0 l 54 0 l 492 867 l 36 867 z "},"8":{"ha":769,"x_min":39,"x_max":725,"o":"m 39 294 q 81 438 39 373 q 196 539 124 503 q 111 630 142 574 q 79 757 79 687 q 167 959 79 879 q 380 1039 254 1039 q 595 959 507 1039 q 684 757 684 879 q 652 631 684 688 q 566 541 620 575 q 682 438 638 503 q 725 294 725 373 q 678 133 725 205 q 552 21 631 60 q 380 -18 473 -18 q 138 71 238 -18 q 39 294 39 159 m 210 292 q 259 174 210 221 q 380 127 309 127 q 503 175 453 127 q 553 292 553 222 q 503 411 553 363 q 380 458 453 458 q 259 411 309 458 q 210 292 210 363 m 236 749 q 278 643 236 685 q 380 600 319 600 q 484 643 441 600 q 526 749 526 685 q 484 852 526 810 q 380 893 441 893 q 278 852 319 893 q 236 749 236 811 z "},"9":{"ha":769,"x_min":41,"x_max":726,"o":"m 41 700 q 69 837 41 773 q 143 944 96 900 q 252 1014 189 988 q 386 1039 315 1039 q 556 996 478 1039 q 680 875 633 954 q 726 700 726 797 q 661 496 726 583 l 660 493 l 343 0 l 153 0 l 385 359 q 212 403 291 359 q 87 525 134 446 q 41 700 41 604 m 263 837 q 238 810 263 837 q 214 700 214 784 q 263 563 214 616 q 386 510 312 510 q 507 563 458 510 q 555 700 555 616 q 507 837 555 784 q 386 889 458 889 q 263 837 312 889 z "}," ":{"ha":322,"x_min":0,"x_max":0,"o":""},"!":{"ha":385,"x_min":90,"x_max":296,"o":"m 90 85 q 119 158 90 129 q 192 187 149 187 q 266 158 237 187 q 296 85 296 129 q 266 11 296 40 q 192 -18 237 -18 q 119 11 148 -18 q 90 85 90 40 m 109 298 l 109 1021 l 275 1021 l 275 298 l 109 298 z "},"\"":{"ha":477,"x_min":69,"x_max":461,"o":"m 69 1044 l 224 1017 l 150 643 l 86 643 l 69 1044 m 307 1044 l 461 1017 l 387 643 l 323 643 l 307 1044 z "},"#":{"ha":981,"x_min":1,"x_max":957,"o":"m 1 258 l 1 395 l 193 395 l 233 619 l 66 619 l 66 754 l 254 754 l 302 1021 l 468 1021 l 422 754 l 624 754 l 672 1021 l 839 1021 l 791 754 l 957 754 l 957 619 l 768 619 l 728 395 l 892 395 l 892 258 l 705 258 l 660 0 l 493 0 l 538 258 l 336 258 l 290 0 l 122 0 l 170 258 l 1 258 m 359 395 l 561 395 l 602 619 l 399 619 l 359 395 z "},"$":{"ha":817,"x_min":29,"x_max":786,"o":"m 29 115 l 123 260 q 256 174 176 206 q 418 142 336 142 q 560 179 508 142 q 612 285 612 216 q 564 375 612 342 q 393 433 515 408 q 132 545 208 474 q 56 734 56 616 q 136 940 56 859 q 350 1036 216 1021 l 350 1207 l 490 1207 l 490 1034 q 746 930 641 1014 l 654 787 q 400 879 544 879 q 276 845 321 879 q 231 743 231 811 q 275 656 231 686 q 443 602 319 627 q 708 491 631 562 q 786 300 786 420 q 707 90 786 174 q 490 -12 629 7 l 490 -179 l 350 -179 l 350 -16 q 29 115 156 1 z "},"%":{"ha":1229,"x_min":37,"x_max":1193,"o":"m 109 595 q 73 631 109 595 q 37 779 37 667 q 109 965 37 891 q 290 1039 180 1039 q 471 965 399 1039 q 543 779 543 890 q 471 595 543 668 q 290 522 399 522 q 109 595 180 522 m 165 779 q 200 681 165 720 q 290 643 235 643 q 380 681 345 643 q 415 779 415 720 q 380 878 415 840 q 290 917 345 917 q 200 878 235 917 q 165 779 165 840 m 203 0 l 864 1021 l 1026 1021 l 366 0 l 203 0 m 686 239 q 758 424 686 351 q 939 497 829 497 q 1121 424 1048 497 q 1193 239 1193 351 q 1121 55 1193 127 q 939 -17 1048 -17 q 758 55 829 -17 q 686 239 686 127 m 814 239 q 849 141 814 180 q 939 103 884 103 q 1029 142 993 103 q 1065 239 1065 180 q 1029 338 1065 298 q 939 378 993 378 q 849 338 884 378 q 814 239 814 299 z "},"&":{"ha":968,"x_min":37,"x_max":975,"o":"m 37 271 q 47 347 37 312 q 73 411 56 382 q 117 467 89 439 q 177 518 145 494 q 254 570 208 541 q 173 685 202 629 q 144 806 144 741 q 215 974 144 909 q 403 1039 286 1039 q 592 975 520 1039 q 664 808 664 910 q 652 739 664 772 q 626 684 641 707 q 582 636 611 662 q 532 597 552 611 q 473 558 511 583 l 661 349 l 775 492 l 968 492 l 766 231 l 975 0 l 761 0 l 663 111 q 363 -14 531 -14 q 201 19 274 -14 q 83 117 128 52 q 37 271 37 182 m 208 282 q 254 173 208 214 q 371 132 300 132 q 559 227 470 132 l 357 457 l 343 472 q 240 383 271 423 q 208 282 208 342 m 301 799 q 322 727 301 762 q 383 652 343 693 q 479 725 450 694 q 507 802 507 756 q 479 874 507 848 q 406 901 452 901 q 330 874 359 901 q 301 799 301 847 z "},"'":{"ha":239,"x_min":69,"x_max":224,"o":"m 69 1044 l 224 1017 l 150 643 l 86 643 l 69 1044 z "},"(":{"ha":423,"x_min":62,"x_max":399,"o":"m 80 214 q 71 259 80 214 q 62 401 62 303 q 80 589 62 500 q 131 749 98 677 q 196 873 163 821 q 271 977 229 925 l 399 886 q 332 797 360 840 q 276 693 304 753 q 234 560 249 634 q 220 401 220 486 q 234 243 220 317 q 276 110 249 169 q 332 6 304 50 q 399 -83 360 -37 l 271 -174 q 196 -70 229 -122 q 131 54 163 -18 q 80 214 98 125 z "},")":{"ha":423,"x_min":26,"x_max":363,"o":"m 26 -83 q 93 6 65 -37 q 149 110 121 50 q 190 243 176 169 q 204 401 204 317 q 190 560 204 486 q 149 693 176 634 q 93 797 121 753 q 26 886 65 840 l 153 977 q 229 872 195 925 q 294 749 262 820 q 345 589 327 677 q 363 401 363 500 q 345 214 363 303 q 294 54 327 125 q 229 -70 262 -17 q 153 -174 195 -122 l 26 -83 z "},"*":{"ha":585,"x_min":36,"x_max":550,"o":"m 36 791 l 74 904 l 241 842 l 233 1019 l 353 1019 l 345 842 l 513 904 l 550 791 l 378 743 l 488 603 l 392 534 l 293 675 l 195 534 l 100 603 l 210 743 l 36 791 z "},"+":{"ha":691,"x_min":52,"x_max":639,"o":"m 52 410 l 52 562 l 268 562 l 268 779 l 421 779 l 421 562 l 639 562 l 639 410 l 421 410 l 421 192 l 268 192 l 268 410 l 52 410 z "},",":{"ha":273,"x_min":68,"x_max":218,"o":"m 68 195 q 109 203 86 203 q 187 171 156 203 q 218 92 218 140 q 197 26 218 58 l 74 -205 l 68 -205 l 68 195 z "},"-":{"ha":602,"x_min":54,"x_max":549,"o":"m 54 282 l 54 436 l 549 436 l 549 282 l 54 282 z "},".":{"ha":322,"x_min":52,"x_max":271,"o":"m 52 96 q 83 175 52 144 q 161 205 114 205 q 240 175 209 205 q 271 96 271 144 q 240 17 271 47 q 161 -14 209 -14 q 82 17 113 -14 q 52 96 52 48 z "},"/":{"ha":688,"x_min":7,"x_max":682,"o":"m 7 0 l 514 1019 l 682 1019 l 178 0 l 7 0 z "},":":{"ha":309,"x_min":52,"x_max":260,"o":"m 81 16 q 66 31 81 16 q 52 90 52 45 q 81 165 52 135 q 155 195 111 195 q 230 165 200 195 q 260 90 260 136 q 230 16 260 45 q 155 -14 200 -14 q 81 16 111 -14 m 81 535 q 66 550 81 535 q 52 610 52 565 q 81 684 52 654 q 155 714 111 714 q 230 684 200 714 q 260 610 260 654 q 230 535 260 565 q 155 505 200 505 q 81 535 111 505 z "},";":{"ha":309,"x_min":52,"x_max":260,"o":"m 81 535 q 66 550 81 535 q 52 610 52 565 q 81 684 52 654 q 155 714 111 714 q 230 684 200 714 q 260 610 260 654 q 230 535 260 565 q 155 505 200 505 q 81 535 111 505 m 81 187 q 121 195 103 195 q 199 163 168 195 q 231 85 231 132 q 210 18 231 50 l 86 -214 l 81 -214 l 81 187 z "},"<":{"ha":511,"x_min":26,"x_max":486,"o":"m 26 478 l 26 484 l 277 747 l 486 747 l 231 481 l 486 214 l 277 214 l 26 478 z "},"=":{"ha":691,"x_min":52,"x_max":639,"o":"m 52 235 l 52 387 l 639 387 l 639 235 l 52 235 m 52 582 l 52 734 l 639 734 l 639 582 l 52 582 z "},">":{"ha":511,"x_min":26,"x_max":486,"o":"m 26 214 l 281 481 l 26 747 l 235 747 l 486 484 l 486 478 l 235 214 l 26 214 z "},"?":{"ha":704,"x_min":26,"x_max":656,"o":"m 26 783 q 132 973 53 907 q 342 1039 212 1039 q 568 958 479 1039 q 656 754 656 876 q 643 665 656 705 q 610 598 630 625 q 565 548 590 571 q 516 505 541 526 q 471 464 491 485 q 438 414 451 443 q 425 351 425 386 l 425 298 l 257 298 l 257 374 q 269 453 257 417 q 301 515 281 490 q 345 562 321 540 q 393 603 369 583 q 436 644 416 623 q 469 692 456 665 q 481 753 481 720 q 441 852 481 816 q 340 888 402 888 q 240 853 278 888 q 192 755 202 819 l 26 783 m 239 85 q 268 158 239 129 q 342 187 297 187 q 415 158 387 187 q 444 85 444 129 q 415 11 444 40 q 342 -18 387 -18 q 268 11 297 -18 q 239 85 239 40 z "},"@":{"ha":1205,"x_min":40,"x_max":1164,"o":"m 40 335 q 82 558 40 454 q 197 734 123 661 q 375 850 271 808 q 602 892 480 892 q 830 851 725 892 q 1008 740 935 811 q 1123 566 1082 668 q 1164 345 1164 465 q 1099 117 1164 203 q 920 31 1034 31 q 820 55 860 31 q 764 117 781 79 l 761 122 q 679 57 730 83 q 564 31 629 31 q 376 117 449 31 q 302 334 302 203 q 376 552 302 466 q 564 637 449 637 q 747 559 689 637 l 754 627 l 880 627 l 880 204 q 936 144 880 144 q 1016 199 987 144 q 1044 345 1044 254 q 923 657 1044 537 q 602 778 802 778 q 373 721 473 778 q 217 563 272 663 q 161 335 161 462 q 216 107 161 208 q 368 -50 270 7 q 593 -106 467 -106 q 772 -72 688 -106 l 804 -179 q 593 -218 707 -218 q 370 -177 473 -218 q 195 -63 267 -136 q 81 112 122 9 q 40 335 40 215 m 487 465 q 466 440 487 465 q 444 334 444 415 q 487 203 444 252 q 599 154 530 154 q 741 235 686 154 l 741 433 q 599 514 684 514 q 487 465 530 514 z "},"A":{"ha":986,"x_min":9,"x_max":977,"o":"m 9 0 l 490 1039 l 496 1039 l 977 0 l 787 0 l 707 184 l 279 184 l 199 0 l 9 0 m 339 328 l 647 328 l 493 682 l 339 328 z "},"B":{"ha":929,"x_min":109,"x_max":889,"o":"m 109 0 l 109 1021 l 485 1021 q 722 948 637 1021 q 806 749 806 876 q 773 622 806 675 q 694 543 741 570 q 889 292 889 484 q 795 78 889 156 q 553 0 701 0 l 109 0 m 281 158 l 532 158 q 665 195 616 158 q 714 302 714 233 q 665 410 714 372 q 521 447 615 447 l 281 447 l 281 158 m 281 593 l 472 593 q 588 630 545 593 q 631 728 631 667 q 587 827 631 792 q 463 863 544 863 l 281 863 l 281 593 z "},"C":{"ha":945,"x_min":43,"x_max":930,"o":"m 43 510 q 109 781 43 661 q 294 970 176 902 q 562 1039 413 1039 q 765 1001 676 1039 q 926 888 853 964 l 817 762 q 562 879 712 879 q 314 775 409 879 q 220 510 220 672 q 315 245 220 349 q 562 142 410 142 q 822 264 719 142 l 930 136 q 562 -18 791 -18 q 354 22 451 -18 q 189 133 257 62 q 82 301 121 203 q 43 510 43 399 z "},"D":{"ha":1021,"x_min":109,"x_max":977,"o":"m 109 0 l 109 1021 l 424 1021 q 831 887 685 1021 q 977 511 977 753 q 831 135 977 269 q 424 0 686 0 l 109 0 m 282 160 l 419 160 q 703 252 604 160 q 802 511 802 343 q 703 769 802 678 q 419 860 604 860 l 282 860 l 282 160 z "},"E":{"ha":811,"x_min":109,"x_max":764,"o":"m 109 0 l 109 1021 l 753 1021 l 753 861 l 282 861 l 282 593 l 693 593 l 693 441 l 282 441 l 282 160 l 764 160 l 764 0 l 109 0 z "},"F":{"ha":758,"x_min":109,"x_max":732,"o":"m 109 0 l 109 1021 l 732 1021 l 732 861 l 282 861 l 282 579 l 660 579 l 660 427 l 282 427 l 282 0 l 109 0 z "},"G":{"ha":1033,"x_min":43,"x_max":951,"o":"m 43 510 q 109 781 43 661 q 294 970 176 902 q 562 1039 413 1039 q 765 1001 676 1039 q 926 888 853 964 l 817 762 q 562 879 712 879 q 314 775 409 879 q 220 510 220 672 q 319 245 220 349 q 576 142 418 142 q 779 204 690 142 l 779 404 l 538 404 l 538 554 l 951 554 l 951 118 q 576 -18 807 -18 q 362 22 462 -18 q 193 133 262 62 q 83 301 123 203 q 43 510 43 399 z "},"H":{"ha":1029,"x_min":109,"x_max":920,"o":"m 109 0 l 109 1021 l 282 1021 l 282 602 l 747 602 l 747 1021 l 920 1021 l 920 0 l 747 0 l 747 443 l 282 443 l 282 0 l 109 0 z "},"I":{"ha":390,"x_min":109,"x_max":282,"o":"m 109 0 l 109 1021 l 282 1021 l 282 0 l 109 0 z "},"J":{"ha":768,"x_min":26,"x_max":675,"o":"m 26 328 l 196 328 q 236 190 196 239 q 347 142 276 142 q 460 186 419 142 q 501 307 501 230 l 501 1021 l 675 1021 l 675 297 q 585 68 675 155 q 353 -18 496 -18 q 229 4 288 -18 q 125 70 170 27 q 53 179 79 112 q 26 328 26 245 z "},"K":{"ha":951,"x_min":109,"x_max":940,"o":"m 109 0 l 109 1021 l 282 1021 l 282 350 l 664 1021 l 868 1021 l 571 529 l 940 0 l 730 0 l 473 374 l 241 0 l 109 0 z "},"L":{"ha":757,"x_min":109,"x_max":745,"o":"m 109 0 l 109 1021 l 282 1021 l 282 154 l 745 154 l 745 0 l 109 0 z "},"M":{"ha":1222,"x_min":109,"x_max":1112,"o":"m 109 0 l 109 1039 l 114 1039 l 611 279 l 1107 1039 l 1112 1039 l 1112 0 l 939 0 l 939 501 l 616 -11 l 606 -11 l 282 501 l 282 0 l 109 0 z "},"N":{"ha":1018,"x_min":109,"x_max":909,"o":"m 109 0 l 109 1039 l 114 1039 l 736 389 l 736 1021 l 909 1021 l 909 -18 l 904 -18 l 282 633 l 282 0 l 109 0 z "},"O":{"ha":1124,"x_min":43,"x_max":1082,"o":"m 43 510 q 82 721 43 623 q 190 889 121 819 q 355 999 259 959 q 562 1039 452 1039 q 768 999 672 1039 q 933 889 865 959 q 1042 721 1002 819 q 1082 510 1082 623 q 1042 299 1082 397 q 933 131 1002 200 q 768 21 865 61 q 562 -18 672 -18 q 355 21 452 -18 q 190 131 259 61 q 82 298 121 200 q 43 510 43 397 m 316 775 q 268 723 316 775 q 220 510 220 671 q 316 245 220 349 q 562 142 412 142 q 809 245 712 142 q 905 510 905 349 q 809 775 905 671 q 562 879 712 879 q 316 775 412 879 z "},"P":{"ha":879,"x_min":109,"x_max":844,"o":"m 109 0 l 109 1021 l 488 1021 q 668 983 588 1021 q 796 870 747 946 q 844 690 844 794 q 796 512 844 588 q 668 398 748 436 q 488 361 588 361 l 282 361 l 282 0 l 109 0 m 282 513 l 471 513 q 615 558 562 513 q 668 690 668 604 q 614 823 668 776 q 471 869 561 869 l 282 869 l 282 513 z "},"Q":{"ha":1124,"x_min":43,"x_max":1143,"o":"m 43 510 q 82 721 43 623 q 190 889 121 819 q 355 999 259 959 q 562 1039 452 1039 q 768 999 672 1039 q 933 889 865 959 q 1042 721 1002 819 q 1082 510 1082 623 q 1042 298 1082 396 q 930 127 1002 199 l 1143 -117 l 933 -117 l 802 36 q 562 -18 691 -18 q 355 21 452 -18 q 190 131 259 61 q 82 298 121 200 q 43 510 43 397 m 316 775 q 268 723 316 775 q 220 510 220 671 q 316 245 220 349 q 562 142 412 142 q 689 164 625 142 l 542 335 l 664 439 l 819 257 q 905 510 905 358 q 809 775 905 671 q 562 879 712 879 q 316 775 412 879 z "},"R":{"ha":899,"x_min":107,"x_max":884,"o":"m 107 0 l 107 1021 l 473 1021 q 656 984 575 1021 q 786 873 736 947 q 835 697 835 798 q 782 516 835 591 q 637 404 728 441 l 884 0 l 681 0 l 453 375 l 279 375 l 279 0 l 107 0 m 279 526 l 458 526 q 605 570 551 526 q 659 697 659 614 q 604 824 659 779 q 458 869 550 869 l 279 869 l 279 526 z "},"S":{"ha":823,"x_min":31,"x_max":787,"o":"m 31 115 l 125 260 q 258 174 178 206 q 419 142 338 142 q 562 179 509 142 q 614 285 614 216 q 565 375 614 342 q 395 433 516 408 q 133 545 209 474 q 57 734 57 616 q 152 955 57 870 q 403 1039 248 1039 q 594 1010 506 1039 q 747 930 682 981 l 656 787 q 401 879 545 879 q 277 845 322 879 q 232 743 232 811 q 276 656 232 686 q 444 602 321 627 q 710 491 632 562 q 787 300 787 420 q 686 69 787 156 q 414 -18 585 -18 q 31 115 181 -18 z "},"T":{"ha":909,"x_min":22,"x_max":888,"o":"m 22 867 l 22 1021 l 888 1021 l 888 867 l 542 867 l 542 0 l 368 0 l 368 867 l 22 867 z "},"U":{"ha":960,"x_min":96,"x_max":864,"o":"m 96 363 l 96 1021 l 269 1021 l 269 374 q 323 204 269 267 q 481 142 378 142 q 636 204 583 142 q 690 374 690 267 l 690 1021 l 864 1021 l 864 363 q 765 84 864 187 q 481 -18 666 -18 q 195 84 295 -18 q 96 363 96 187 z "},"V":{"ha":996,"x_min":11,"x_max":985,"o":"m 11 1021 l 201 1021 l 498 353 l 796 1021 l 985 1021 l 501 -16 l 496 -16 l 11 1021 z "},"W":{"ha":1348,"x_min":11,"x_max":1336,"o":"m 11 1021 l 204 1021 l 428 410 l 671 1021 l 676 1021 l 920 410 l 1145 1021 l 1336 1021 l 929 -16 l 924 -16 l 673 602 l 425 -16 l 419 -16 l 11 1021 z "},"X":{"ha":947,"x_min":18,"x_max":930,"o":"m 18 0 l 353 518 l 32 1021 l 233 1021 l 473 647 l 715 1021 l 917 1021 l 596 518 l 930 0 l 730 0 l 473 392 l 218 0 l 18 0 z "},"Y":{"ha":940,"x_min":8,"x_max":932,"o":"m 8 1019 l 210 1019 l 469 597 l 729 1019 l 932 1019 l 557 425 l 557 0 l 383 0 l 383 422 l 8 1019 z "},"Z":{"ha":814,"x_min":31,"x_max":779,"o":"m 31 0 l 31 5 l 497 867 l 53 867 l 53 1021 l 764 1021 l 764 1015 l 300 154 l 779 154 l 779 0 l 31 0 z "},"[":{"ha":443,"x_min":77,"x_max":408,"o":"m 77 -168 l 77 971 l 408 971 l 408 838 l 236 838 l 236 -35 l 408 -35 l 408 -168 l 77 -168 z "},"\\":{"ha":688,"x_min":7,"x_max":682,"o":"m 7 1019 l 176 1019 l 682 0 l 513 0 l 7 1019 z "},"]":{"ha":450,"x_min":35,"x_max":374,"o":"m 35 -35 l 214 -35 l 214 838 l 35 838 l 35 971 l 374 971 l 374 -168 l 35 -168 l 35 -35 z "},"^":{"ha":736,"x_min":26,"x_max":711,"o":"m 26 642 l 368 1055 l 711 642 l 559 642 l 368 873 l 178 642 l 26 642 z "},"_":{"ha":1107,"x_min":54,"x_max":1054,"o":"m 54 0 l 1054 0 l 1054 -153 l 54 -153 l 54 0 z "},"`":{"ha":435,"x_min":32,"x_max":414,"o":"m 32 989 l 224 989 l 414 799 l 258 799 l 32 989 z "},"a":{"ha":833,"x_min":39,"x_max":732,"o":"m 39 350 q 127 612 39 509 q 358 714 216 714 q 488 687 433 714 q 574 618 543 661 l 582 700 l 732 700 l 732 0 l 582 0 l 574 82 q 488 13 543 39 q 358 -14 433 -14 q 127 89 216 -14 q 39 350 39 191 m 260 508 q 234 478 260 508 q 208 350 208 448 q 260 193 208 252 q 395 134 313 134 q 566 237 500 134 l 566 463 q 395 567 500 567 q 260 508 313 567 z "},"b":{"ha":833,"x_min":102,"x_max":793,"o":"m 102 0 l 102 1055 l 268 1055 l 268 631 q 475 714 338 714 q 704 612 616 714 q 793 350 793 509 q 753 163 793 246 q 641 34 713 81 q 475 -14 568 -14 q 345 13 399 -14 q 258 82 290 39 l 252 0 l 102 0 m 268 237 q 439 134 330 134 q 573 193 521 134 q 625 350 625 252 q 573 508 625 448 q 439 567 521 567 q 268 463 331 567 l 268 237 z "},"c":{"ha":704,"x_min":39,"x_max":684,"o":"m 39 350 q 138 612 39 509 q 397 714 237 714 q 681 559 581 714 l 559 468 q 399 568 502 568 q 258 507 308 568 q 208 350 208 446 q 259 194 208 255 q 400 132 311 132 q 564 233 503 132 l 684 140 q 399 -14 585 -14 q 139 89 239 -14 q 39 350 39 191 z "},"d":{"ha":833,"x_min":39,"x_max":732,"o":"m 39 350 q 127 612 39 509 q 358 714 216 714 q 566 631 494 714 l 566 1055 l 732 1055 l 732 0 l 582 0 l 574 82 q 488 13 543 39 q 358 -14 433 -14 q 127 89 216 -14 q 39 350 39 191 m 260 508 q 234 478 260 508 q 208 350 208 448 q 260 193 208 252 q 395 134 313 134 q 566 237 500 134 l 566 463 q 395 567 500 567 q 260 508 313 567 z "},"e":{"ha":748,"x_min":39,"x_max":703,"o":"m 39 349 q 135 611 39 507 q 382 714 231 714 q 523 686 460 714 q 623 609 585 658 q 682 495 662 559 q 703 357 703 431 l 703 298 l 208 298 q 260 171 211 215 q 396 126 309 126 q 499 149 454 126 q 570 207 544 171 l 685 113 q 395 -14 581 -14 q 207 33 288 -14 q 82 162 125 80 q 39 349 39 244 m 208 418 l 539 418 q 494 536 536 492 q 379 581 452 581 q 259 536 306 581 q 208 418 212 491 z "},"f":{"ha":515,"x_min":24,"x_max":564,"o":"m 24 558 l 24 700 l 147 700 l 147 783 q 217 980 147 904 q 406 1055 288 1055 q 564 1010 503 1055 l 501 875 q 415 908 470 908 q 341 877 368 908 q 315 791 315 845 l 315 700 l 486 700 l 486 558 l 315 558 l 315 0 l 147 0 l 147 558 l 24 558 z "},"g":{"ha":834,"x_min":32,"x_max":732,"o":"m 32 -184 l 142 -75 q 363 -186 236 -186 q 511 -129 456 -186 q 566 20 566 -73 l 566 78 q 358 -7 495 -7 q 129 95 217 -7 q 40 354 40 197 q 129 613 40 511 q 358 714 217 714 q 488 687 433 714 q 574 618 543 661 l 582 700 l 732 700 l 732 24 q 632 -238 732 -142 q 364 -334 532 -334 q 32 -184 161 -334 m 260 508 q 234 479 260 508 q 208 354 208 450 q 260 199 208 258 q 395 140 313 140 q 566 244 503 140 l 566 463 q 395 567 503 567 q 260 508 313 567 z "},"h":{"ha":818,"x_min":102,"x_max":734,"o":"m 102 0 l 102 1055 l 268 1055 l 268 631 q 469 714 345 714 q 665 632 595 714 q 734 410 734 549 l 734 0 l 567 0 l 567 400 q 529 514 567 471 q 427 557 490 557 q 268 458 332 557 l 268 0 l 102 0 z "},"i":{"ha":369,"x_min":82,"x_max":289,"o":"m 111 850 q 97 864 111 850 q 82 924 82 879 q 111 997 82 968 q 184 1026 140 1026 q 259 997 229 1026 q 289 924 289 968 q 259 850 289 879 q 184 821 229 821 q 111 850 140 821 m 102 0 l 102 700 l 268 700 l 268 0 l 102 0 z "},"j":{"ha":369,"x_min":-236,"x_max":289,"o":"m -236 -240 l -127 -129 q -12 -186 -76 -186 q 70 -155 39 -186 q 102 -74 102 -125 l 102 700 l 268 700 l 268 -61 q 190 -256 268 -178 q -8 -334 112 -334 q -236 -240 -146 -334 m 111 850 q 97 864 111 850 q 82 924 82 879 q 111 997 82 968 q 184 1026 140 1026 q 259 997 229 1026 q 289 924 289 968 q 259 850 289 879 q 184 821 229 821 q 111 850 140 821 z "},"k":{"ha":774,"x_min":102,"x_max":766,"o":"m 102 0 l 102 1055 l 268 1055 l 268 292 l 539 700 l 739 700 l 525 401 l 766 0 l 575 0 l 416 260 l 233 0 l 102 0 z "},"l":{"ha":369,"x_min":102,"x_max":268,"o":"m 102 0 l 102 1055 l 268 1055 l 268 0 l 102 0 z "},"m":{"ha":1259,"x_min":102,"x_max":1177,"o":"m 102 0 l 102 700 l 252 700 l 258 619 q 344 688 290 661 q 469 714 397 714 q 597 682 543 714 q 684 590 652 650 q 924 714 772 714 q 1110 632 1043 714 q 1177 410 1177 549 l 1177 0 l 1008 0 l 1008 400 q 974 514 1008 471 q 878 557 939 557 q 721 457 787 557 q 722 441 721 452 q 722 425 722 430 l 722 0 l 554 0 l 554 400 q 519 514 554 471 q 424 557 484 557 q 268 460 338 557 l 268 0 l 102 0 z "},"n":{"ha":818,"x_min":102,"x_max":734,"o":"m 102 0 l 102 700 l 252 700 l 258 619 q 344 687 290 661 q 469 714 398 714 q 665 632 595 714 q 734 410 734 549 l 734 0 l 567 0 l 567 400 q 529 514 567 471 q 427 557 490 557 q 268 458 332 557 l 268 0 l 102 0 z "},"o":{"ha":806,"x_min":39,"x_max":766,"o":"m 39 349 q 142 610 39 507 q 403 714 245 714 q 663 610 560 714 q 766 349 766 507 q 720 162 766 245 q 590 33 673 79 q 403 -14 507 -14 q 142 89 245 -14 q 39 349 39 192 m 208 349 q 263 194 208 255 q 403 134 318 134 q 543 194 488 134 q 599 349 599 255 q 543 505 599 443 q 403 567 488 567 q 263 505 319 567 q 208 349 208 444 z "},"p":{"ha":833,"x_min":102,"x_max":793,"o":"m 102 -319 l 102 700 l 252 700 l 258 618 q 345 687 290 661 q 475 714 400 714 q 704 612 616 714 q 793 350 793 509 q 753 163 793 246 q 641 34 713 81 q 475 -14 568 -14 q 268 69 337 -14 l 268 -319 l 102 -319 m 268 237 q 439 134 330 134 q 573 193 521 134 q 625 350 625 252 q 573 508 625 448 q 439 567 521 567 q 268 463 331 567 l 268 237 z "},"q":{"ha":833,"x_min":39,"x_max":732,"o":"m 39 350 q 127 612 39 509 q 358 714 216 714 q 488 687 433 714 q 574 618 543 661 l 582 700 l 732 700 l 732 -319 l 566 -319 l 566 69 q 358 -14 494 -14 q 127 89 216 -14 q 39 350 39 191 m 260 508 q 234 478 260 508 q 208 350 208 448 q 260 193 208 252 q 395 134 313 134 q 566 237 500 134 l 566 463 q 395 567 500 567 q 260 508 313 567 z "},"r":{"ha":484,"x_min":102,"x_max":465,"o":"m 102 0 l 102 700 l 252 700 l 260 607 q 342 684 288 653 q 465 714 395 714 l 465 547 l 452 547 q 349 520 392 547 q 268 441 305 492 l 268 0 l 102 0 z "},"s":{"ha":643,"x_min":39,"x_max":599,"o":"m 39 71 l 109 196 q 307 125 195 125 q 429 200 429 125 q 400 254 429 235 q 294 292 372 273 q 119 367 173 320 q 65 494 65 413 q 139 655 65 597 q 343 714 214 714 q 476 693 414 714 q 581 637 539 673 l 514 514 q 343 575 438 575 q 232 505 232 575 q 259 455 232 471 q 370 419 287 439 q 543 340 486 391 q 599 210 599 289 q 520 47 599 108 q 306 -14 441 -14 q 155 9 227 -14 q 39 71 84 31 z "},"t":{"ha":569,"x_min":16,"x_max":564,"o":"m 16 558 l 16 700 l 147 700 l 147 935 l 314 935 l 314 700 l 525 700 l 525 558 l 314 558 l 314 249 q 344 166 314 197 q 424 136 374 136 q 519 158 482 136 l 564 28 q 408 -14 500 -14 q 217 54 286 -14 q 147 248 147 122 l 147 558 l 16 558 z "},"u":{"ha":809,"x_min":85,"x_max":708,"o":"m 85 289 l 85 700 l 252 700 l 252 297 q 286 186 252 229 q 380 144 321 144 q 472 170 435 144 q 542 241 510 196 l 542 700 l 708 700 l 708 0 l 558 0 l 550 81 q 336 -14 479 -14 q 151 68 216 -14 q 85 289 85 149 z "},"v":{"ha":773,"x_min":12,"x_max":761,"o":"m 12 700 l 200 700 l 387 313 l 574 700 l 761 700 l 390 -14 l 385 -14 l 12 700 z "},"w":{"ha":1067,"x_min":12,"x_max":1054,"o":"m 12 700 l 200 700 l 351 328 l 530 700 l 536 700 l 715 328 l 868 700 l 1054 700 l 732 -14 l 726 -14 l 533 370 l 340 -14 l 335 -14 l 12 700 z "},"x":{"ha":715,"x_min":9,"x_max":700,"o":"m 9 0 l 240 355 l 20 700 l 214 700 l 354 473 l 496 700 l 690 700 l 469 355 l 700 0 l 503 0 l 354 233 l 207 0 l 9 0 z "},"y":{"ha":783,"x_min":18,"x_max":766,"o":"m 18 700 l 204 700 l 392 309 l 579 700 l 766 700 l 240 -319 l 49 -319 l 301 143 l 18 700 z "},"z":{"ha":646,"x_min":31,"x_max":612,"o":"m 31 0 l 31 5 l 353 558 l 52 558 l 52 700 l 612 700 l 612 694 l 290 142 l 611 142 l 611 0 l 31 0 z "},"{":{"ha":469,"x_min":32,"x_max":435,"o":"m 32 399 l 32 404 q 136 459 99 419 q 154 559 172 500 l 143 632 q 139 815 111 740 q 244 931 167 890 q 435 971 321 971 l 435 838 q 319 793 359 838 q 298 663 279 748 l 310 587 q 307 468 332 517 q 233 401 283 419 q 307 334 283 384 q 310 215 332 285 l 298 140 q 319 10 279 55 q 435 -35 359 -35 l 435 -168 q 244 -128 321 -168 q 139 -12 167 -87 q 143 171 111 63 l 154 243 q 135 343 172 302 q 32 399 98 384 z "},"|":{"ha":337,"x_min":89,"x_max":249,"o":"m 89 -168 l 89 971 l 249 971 l 249 -168 l 89 -168 z "},"}":{"ha":469,"x_min":35,"x_max":437,"o":"m 35 -35 q 149 10 109 -35 q 171 140 189 55 l 158 215 q 162 334 138 285 q 236 401 186 384 q 162 468 186 419 q 158 587 138 517 l 171 663 q 149 793 189 748 q 35 838 109 838 l 35 971 q 225 931 148 971 q 331 815 302 890 q 328 632 359 740 l 314 559 q 334 459 296 500 q 437 404 371 419 l 437 399 q 334 343 371 384 q 314 243 296 302 l 328 171 q 331 -12 359 63 q 225 -128 302 -87 q 35 -168 148 -168 l 35 -35 z "},"~":{"ha":826,"x_min":32,"x_max":794,"o":"m 32 441 q 128 575 66 527 q 271 624 191 624 q 346 612 311 624 q 406 583 380 600 q 454 548 431 566 q 503 519 477 531 q 555 507 528 507 q 642 536 606 507 q 696 611 677 565 l 794 534 q 698 401 760 450 q 555 353 635 353 q 480 365 514 353 q 422 394 446 376 q 378 428 399 411 q 329 457 356 446 q 271 469 302 469 q 184 441 220 469 q 131 366 149 412 l 32 441 z "}," ":{"ha":322,"x_min":0,"x_max":0,"o":""},"¡":{"ha":385,"x_min":89,"x_max":294,"o":"m 89 610 q 119 684 89 654 q 193 713 149 713 q 266 684 237 713 q 294 610 294 654 q 266 536 294 566 q 193 507 237 507 q 119 536 149 507 q 89 610 89 566 m 110 -326 l 110 396 l 277 396 l 277 -326 l 110 -326 z "},"¢":{"ha":711,"x_min":39,"x_max":684,"o":"m 39 350 q 117 589 39 491 q 328 708 196 686 l 328 889 l 467 889 l 467 707 q 681 559 600 682 l 559 468 q 399 568 502 568 q 258 507 308 568 q 208 350 208 446 q 259 194 208 255 q 400 132 311 132 q 564 233 503 132 l 684 140 q 467 -8 604 17 l 467 -204 l 328 -204 l 328 -7 q 117 113 196 15 q 39 350 39 210 z "},"£":{"ha":819,"x_min":21,"x_max":778,"o":"m 21 0 l 21 5 q 42 39 24 10 q 66 76 60 67 q 88 114 71 85 q 110 155 104 142 q 129 197 116 169 q 145 243 141 225 q 157 290 150 262 q 164 341 163 318 q 163 393 164 365 q 155 449 161 421 l 29 449 l 29 581 l 118 581 q 98 713 98 653 q 184 951 98 863 q 416 1039 270 1039 q 529 1020 477 1039 q 616 969 581 1001 q 676 900 652 937 q 713 821 701 862 l 551 775 q 502 860 538 828 q 411 892 465 892 q 303 847 340 892 q 265 725 265 802 q 289 581 265 670 l 525 581 l 525 449 l 323 449 q 334 367 334 394 q 271 147 334 254 l 482 147 q 582 179 551 147 q 614 288 614 212 l 778 288 q 515 0 778 0 l 21 0 z "},"¤":{"ha":913,"x_min":43,"x_max":871,"o":"m 43 56 l 210 221 q 171 366 171 283 q 210 509 171 445 l 43 673 l 150 779 l 317 614 q 457 652 378 652 q 597 614 531 652 l 764 779 l 871 673 l 704 509 q 743 366 743 444 q 704 221 743 283 l 871 56 l 764 -50 l 596 117 q 457 81 536 81 q 317 117 377 81 l 150 -50 l 43 56 m 311 366 q 353 251 311 296 q 457 205 394 205 q 561 251 519 205 q 603 366 603 297 q 561 479 603 433 q 457 525 519 525 q 353 479 394 525 q 311 366 311 433 z "},"¥":{"ha":936,"x_min":5,"x_max":930,"o":"m 5 1019 l 208 1019 l 468 597 l 726 1019 l 930 1019 l 621 534 l 785 534 l 785 411 l 555 411 l 555 300 l 785 300 l 785 178 l 555 178 l 555 0 l 382 0 l 382 178 l 153 178 l 153 300 l 382 300 l 382 411 l 153 411 l 153 534 l 314 534 l 5 1019 z "},"¦":{"ha":337,"x_min":89,"x_max":249,"o":"m 89 -168 l 89 260 l 249 260 l 249 -168 l 89 -168 m 89 543 l 89 971 l 249 971 l 249 543 l 89 543 z "},"§":{"ha":614,"x_min":35,"x_max":575,"o":"m 35 -29 l 135 72 q 272 3 188 3 q 365 32 330 3 q 399 109 399 60 q 330 197 399 168 q 303 205 317 202 q 272 211 290 208 q 244 216 254 214 q 97 299 153 234 q 41 453 41 364 q 71 565 41 515 q 151 643 100 614 q 58 806 58 694 q 133 971 58 904 q 332 1039 208 1039 q 543 953 462 1039 l 450 850 q 330 903 404 903 q 245 875 277 903 q 214 803 214 848 q 293 705 214 734 q 340 695 309 701 q 387 685 371 690 q 523 601 471 664 q 575 453 575 537 q 545 340 575 391 q 464 261 515 290 q 554 107 554 210 q 476 -64 554 6 q 271 -134 397 -134 q 138 -107 199 -134 q 35 -29 77 -81 m 224 537 q 207 521 224 537 q 191 453 191 504 q 224 369 191 402 q 309 336 257 336 q 394 369 359 336 q 428 453 428 402 q 394 537 428 504 q 309 571 359 571 q 224 537 257 571 z "},"¨":{"ha":473,"x_min":26,"x_max":447,"o":"m 26 896 q 51 957 26 932 q 111 981 75 981 q 173 957 149 981 q 197 896 197 932 q 173 834 197 859 q 111 810 149 810 q 51 834 75 810 q 26 896 26 859 m 277 896 q 300 957 277 932 q 361 981 324 981 q 422 957 398 981 q 447 896 447 932 q 423 834 447 859 q 361 810 399 810 q 300 834 324 810 q 277 896 277 859 z "},"©":{"ha":943,"x_min":43,"x_max":900,"o":"m 43 646 q 75 820 43 739 q 163 961 107 902 q 299 1053 220 1019 q 471 1086 379 1086 q 641 1053 562 1086 q 778 961 721 1019 q 867 820 834 902 q 900 646 900 739 q 844 420 900 520 q 690 264 788 320 q 471 208 592 208 q 251 264 349 208 q 98 420 153 320 q 43 646 43 520 m 144 646 q 236 399 144 497 q 471 301 328 301 q 706 399 612 301 q 799 646 799 497 q 705 892 799 793 q 471 991 612 991 q 237 892 329 991 q 144 646 144 793 m 249 652 q 317 824 249 755 q 489 892 385 892 q 656 821 592 892 l 596 750 q 489 796 555 796 q 387 757 425 796 q 350 652 350 718 q 387 546 350 584 q 489 507 425 507 q 597 554 555 507 l 657 482 q 489 411 590 411 q 317 479 385 411 q 249 652 249 547 z "},"ª":{"ha":602,"x_min":33,"x_max":529,"o":"m 33 785 q 95 969 33 896 q 252 1042 157 1042 q 401 977 350 1042 l 407 1032 l 529 1032 l 529 539 l 407 539 l 401 593 q 252 529 351 529 q 95 602 156 529 q 33 785 33 674 m 203 885 q 187 866 203 885 q 171 785 171 848 q 203 684 171 722 q 288 646 235 646 q 393 710 352 646 l 393 860 q 288 922 353 922 q 203 885 235 922 z "},"«":{"ha":711,"x_min":21,"x_max":690,"o":"m 21 353 l 21 358 l 204 636 l 358 636 l 180 355 l 358 75 l 204 75 l 21 353 m 353 353 l 353 358 l 536 636 l 690 636 l 511 355 l 690 75 l 536 75 l 353 353 z "},"¬":{"ha":829,"x_min":50,"x_max":779,"o":"m 50 498 l 50 615 l 779 615 l 779 210 l 661 210 l 661 498 l 50 498 z "},"­":{"ha":602,"x_min":54,"x_max":549,"o":"m 54 282 l 54 436 l 549 436 l 549 282 l 54 282 z "},"®":{"ha":943,"x_min":43,"x_max":900,"o":"m 43 646 q 75 820 43 739 q 163 961 107 902 q 299 1053 220 1019 q 471 1086 379 1086 q 641 1053 562 1086 q 778 961 721 1019 q 867 820 834 902 q 900 646 900 739 q 844 420 900 520 q 690 264 788 320 q 471 208 592 208 q 251 264 349 208 q 98 420 153 320 q 43 646 43 520 m 144 646 q 236 399 144 497 q 471 301 328 301 q 706 399 612 301 q 799 646 799 497 q 705 892 799 793 q 471 991 612 991 q 237 892 329 991 q 144 646 144 793 m 300 415 l 300 886 l 481 886 q 601 845 552 886 q 650 733 650 804 q 566 595 650 637 l 672 415 l 557 415 l 461 575 l 400 575 l 400 415 l 300 415 m 400 667 l 471 667 q 550 730 550 667 q 471 794 550 794 l 400 794 l 400 667 z "},"¯":{"ha":422,"x_min":26,"x_max":396,"o":"m 26 827 l 26 939 l 396 939 l 396 827 l 26 827 z "},"°":{"ha":490,"x_min":40,"x_max":450,"o":"m 40 835 q 99 980 40 922 q 248 1038 157 1038 q 392 979 334 1038 q 450 835 450 921 q 392 690 450 747 q 248 633 334 633 q 98 690 157 633 q 40 835 40 747 m 151 835 q 178 766 151 793 q 248 739 205 739 q 313 766 286 739 q 339 835 339 793 q 313 904 339 876 q 248 932 286 932 q 179 904 206 932 q 151 835 151 877 z "},"±":{"ha":691,"x_min":52,"x_max":639,"o":"m 52 102 l 52 254 l 639 254 l 639 102 l 52 102 m 52 562 l 52 717 l 268 717 l 268 932 l 421 932 l 421 717 l 639 717 l 639 562 l 421 562 l 421 346 l 268 346 l 268 562 l 52 562 z "},"²":{"ha":477,"x_min":43,"x_max":446,"o":"m 43 972 q 239 1140 76 1140 q 386 1088 330 1140 q 441 954 441 1036 q 424 872 441 910 q 372 789 407 834 l 264 656 l 446 656 l 446 547 l 56 547 l 56 553 l 268 851 q 306 908 296 886 q 317 957 317 930 q 295 1011 317 991 q 239 1031 274 1031 q 154 946 168 1031 l 43 972 z "},"³":{"ha":471,"x_min":40,"x_max":450,"o":"m 40 696 l 150 721 q 244 646 170 646 q 303 668 281 646 q 326 725 326 690 q 302 780 326 758 q 240 802 278 802 l 176 802 l 176 895 l 243 895 q 294 913 274 896 q 314 962 314 930 q 293 1012 314 993 q 239 1031 271 1031 q 158 964 176 1031 l 53 1010 q 241 1140 94 1140 q 382 1088 328 1140 q 436 961 436 1037 q 366 844 436 882 q 450 718 450 806 q 394 587 450 638 q 244 536 338 536 q 40 696 78 536 z "},"´":{"ha":435,"x_min":21,"x_max":403,"o":"m 21 799 l 210 989 l 403 989 l 176 799 l 21 799 z "},"µ":{"ha":826,"x_min":102,"x_max":725,"o":"m 102 -319 l 102 700 l 268 700 l 268 294 q 303 186 268 227 q 397 144 338 144 q 488 170 451 144 q 557 241 525 196 l 557 700 l 725 700 l 725 0 l 574 0 l 567 81 q 484 13 535 39 q 368 -14 433 -14 q 268 9 306 -14 l 268 -319 l 102 -319 z "},"¶":{"ha":1008,"x_min":35,"x_max":962,"o":"m 35 715 q 84 885 35 815 q 218 988 134 955 q 414 1021 302 1021 l 962 1021 l 962 890 l 843 890 l 843 -153 l 701 -153 l 701 890 l 557 890 l 557 -153 l 415 -153 l 415 424 l 412 424 q 294 435 349 424 q 190 469 238 446 q 108 526 142 492 q 54 608 73 559 q 35 715 35 656 z "},"·":{"ha":293,"x_min":40,"x_max":253,"o":"m 40 355 q 70 432 40 401 q 146 463 100 463 q 223 432 193 463 q 253 355 253 401 q 223 280 253 311 q 146 250 193 250 q 70 280 100 250 q 40 355 40 311 z "},"¸":{"ha":342,"x_min":25,"x_max":322,"o":"m 25 -296 l 85 -227 q 160 -264 117 -264 q 202 -249 186 -264 q 218 -208 218 -235 q 158 -154 218 -158 q 92 -163 125 -151 l 87 -157 l 122 28 l 210 22 l 195 -72 q 288 -112 254 -77 q 322 -205 322 -146 q 279 -313 322 -274 q 164 -353 236 -353 q 25 -296 72 -353 z "},"¹":{"ha":363,"x_min":33,"x_max":296,"o":"m 33 1007 l 293 1140 l 296 1140 l 296 547 l 174 547 l 174 947 l 85 895 l 33 1007 z "},"º":{"ha":585,"x_min":33,"x_max":550,"o":"m 33 785 q 107 968 33 895 q 293 1042 180 1042 q 476 968 403 1042 q 550 785 550 895 q 477 601 550 673 q 293 529 404 529 q 106 601 180 529 q 33 785 33 673 m 205 883 q 188 864 205 883 q 171 785 171 844 q 205 685 171 725 q 293 646 239 646 q 379 685 345 646 q 414 785 414 725 q 379 883 414 844 q 293 922 345 922 q 205 883 239 922 z "},"»":{"ha":711,"x_min":21,"x_max":690,"o":"m 21 75 l 200 355 l 21 636 l 175 636 l 358 358 l 358 353 l 175 75 l 21 75 m 353 75 l 530 355 l 353 636 l 507 636 l 690 358 l 690 353 l 507 75 l 353 75 z "},"¼":{"ha":1042,"x_min":33,"x_max":1022,"o":"m 33 868 l 293 1002 l 296 1002 l 296 408 l 174 408 l 174 808 l 85 755 l 33 868 m 179 0 l 685 1019 l 838 1019 l 334 0 l 179 0 m 536 79 l 536 82 l 950 595 l 953 595 l 953 172 l 1022 172 l 1022 78 l 953 78 l 953 0 l 832 0 l 832 79 l 536 79 m 720 168 l 840 168 l 840 319 l 720 168 z "},"½":{"ha":1123,"x_min":33,"x_max":1090,"o":"m 33 868 l 293 1002 l 296 1002 l 296 408 l 174 408 l 174 808 l 85 755 l 33 868 m 179 0 l 685 1019 l 838 1019 l 334 0 l 179 0 m 688 425 q 884 593 721 593 q 1031 541 975 593 q 1086 407 1086 489 q 1069 325 1086 363 q 1017 241 1052 288 l 908 109 l 1090 109 l 1090 0 l 700 0 l 700 5 l 913 304 q 950 361 940 338 q 961 410 961 383 q 940 464 961 444 q 884 484 919 484 q 799 399 813 484 l 688 425 z "},"¾":{"ha":1148,"x_min":40,"x_max":1128,"o":"m 40 557 l 150 582 q 244 507 169 507 q 303 529 281 507 q 326 586 326 551 q 302 641 326 618 q 240 663 278 663 l 176 663 l 176 755 l 243 755 q 294 774 274 757 q 314 823 314 791 q 293 873 314 854 q 239 892 271 892 q 158 825 176 892 l 53 871 q 241 1002 94 1002 q 382 950 328 1002 q 436 822 436 898 q 366 705 436 743 q 450 579 450 667 q 394 448 450 499 q 244 397 338 397 q 40 557 78 397 m 285 0 l 790 1019 l 943 1019 l 439 0 l 285 0 m 642 79 l 642 82 l 1055 595 l 1059 595 l 1059 172 l 1128 172 l 1128 78 l 1059 78 l 1059 0 l 937 0 l 937 79 l 642 79 m 825 168 l 946 168 l 946 319 l 825 168 z "},"¿":{"ha":704,"x_min":47,"x_max":676,"o":"m 47 -60 q 60 29 47 -11 q 93 96 73 69 q 138 146 113 123 q 188 189 163 169 q 232 231 212 210 q 265 280 252 252 q 278 343 278 309 l 278 396 l 446 396 l 446 321 q 433 241 446 277 q 401 180 421 205 q 358 133 382 155 q 310 91 334 111 q 267 51 286 71 q 235 2 247 30 q 222 -58 222 -26 q 262 -157 222 -121 q 363 -193 301 -193 q 463 -159 425 -193 q 511 -61 501 -124 l 676 -89 q 570 -278 650 -212 q 361 -345 491 -345 q 135 -263 223 -345 q 47 -60 47 -182 m 258 610 q 287 684 258 654 q 361 713 316 713 q 435 684 406 713 q 464 610 464 654 q 435 536 464 566 q 361 507 406 507 q 287 536 316 507 q 258 610 258 566 z "},"À":{"ha":986,"x_min":9,"x_max":977,"o":"m 9 0 l 490 1039 l 496 1039 l 977 0 l 787 0 l 707 184 l 279 184 l 199 0 l 9 0 m 196 1235 l 397 1235 l 578 1072 l 406 1072 l 196 1235 m 339 328 l 647 328 l 493 682 l 339 328 z "},"Á":{"ha":986,"x_min":9,"x_max":977,"o":"m 9 0 l 490 1039 l 496 1039 l 977 0 l 787 0 l 707 184 l 279 184 l 199 0 l 9 0 m 339 328 l 647 328 l 493 682 l 339 328 m 390 1072 l 571 1235 l 772 1235 l 562 1072 l 390 1072 z "},"Â":{"ha":986,"x_min":9,"x_max":977,"o":"m 9 0 l 490 1039 l 496 1039 l 977 0 l 787 0 l 707 184 l 279 184 l 199 0 l 9 0 m 261 1071 l 492 1279 l 722 1071 l 579 1071 l 492 1149 l 403 1071 l 261 1071 m 339 328 l 647 328 l 493 682 l 339 328 z "},"Ã":{"ha":986,"x_min":9,"x_max":977,"o":"m 9 0 l 490 1039 l 496 1039 l 977 0 l 787 0 l 707 184 l 279 184 l 199 0 l 9 0 m 257 1076 q 299 1227 257 1177 q 408 1278 342 1278 q 463 1267 439 1278 q 502 1241 488 1257 q 529 1211 517 1226 q 555 1186 541 1196 q 585 1175 569 1175 q 628 1270 628 1175 l 726 1270 q 684 1120 726 1172 q 575 1068 642 1068 q 520 1079 543 1068 q 483 1104 496 1089 q 459 1134 470 1119 q 434 1160 448 1149 q 403 1171 420 1171 q 355 1076 355 1171 l 257 1076 m 339 328 l 647 328 l 493 682 l 339 328 z "},"Ä":{"ha":986,"x_min":9,"x_max":977,"o":"m 9 0 l 490 1039 l 496 1039 l 977 0 l 787 0 l 707 184 l 279 184 l 199 0 l 9 0 m 282 1156 q 306 1217 282 1193 q 367 1242 330 1242 q 429 1218 404 1242 q 453 1156 453 1194 q 429 1095 453 1119 q 367 1071 404 1071 q 306 1095 330 1071 q 282 1156 282 1119 m 339 328 l 647 328 l 493 682 l 339 328 m 532 1156 q 556 1217 532 1193 q 616 1242 580 1242 q 678 1218 654 1242 q 703 1156 703 1194 q 678 1095 703 1119 q 616 1071 654 1071 q 556 1095 580 1071 q 532 1156 532 1119 z "},"Å":{"ha":986,"x_min":9,"x_max":977,"o":"m 9 0 l 490 1039 l 496 1039 l 977 0 l 787 0 l 707 184 l 279 184 l 199 0 l 9 0 m 332 1226 q 377 1339 332 1294 q 492 1385 423 1385 q 606 1339 560 1385 q 652 1226 652 1294 q 606 1113 652 1158 q 492 1068 561 1068 q 377 1113 422 1068 q 332 1226 332 1158 m 339 328 l 647 328 l 493 682 l 339 328 m 427 1226 q 446 1179 427 1198 q 492 1160 465 1160 q 539 1179 520 1160 q 558 1226 558 1198 q 539 1275 558 1255 q 492 1295 519 1295 q 446 1275 465 1295 q 427 1226 427 1255 z "},"Æ":{"ha":1221,"x_min":9,"x_max":1175,"o":"m 9 0 l 458 1021 l 1164 1021 l 1164 861 l 616 861 l 728 590 l 1104 590 l 1104 444 l 787 444 l 907 160 l 1175 160 l 1175 0 l 782 0 l 704 191 l 281 191 l 204 0 l 9 0 m 335 323 l 652 323 l 493 713 l 335 323 z "},"Ç":{"ha":945,"x_min":43,"x_max":930,"o":"m 43 510 q 109 781 43 661 q 294 970 176 902 q 562 1039 413 1039 q 765 1001 676 1039 q 926 888 853 964 l 817 762 q 562 879 712 879 q 314 775 409 879 q 220 510 220 672 q 315 245 220 349 q 562 142 410 142 q 822 264 719 142 l 930 136 q 566 -18 792 -16 l 557 -72 q 651 -112 616 -77 q 685 -205 685 -147 q 642 -313 685 -273 q 526 -353 599 -353 q 387 -296 434 -353 l 447 -227 q 522 -264 479 -264 q 565 -249 549 -264 q 581 -208 581 -235 q 521 -154 581 -158 q 454 -163 488 -151 l 450 -157 l 476 -11 q 251 79 349 7 q 97 263 152 151 q 43 510 43 376 z "},"È":{"ha":811,"x_min":109,"x_max":764,"o":"m 109 0 l 109 1021 l 753 1021 l 753 861 l 282 861 l 282 593 l 693 593 l 693 441 l 282 441 l 282 160 l 764 160 l 764 0 l 109 0 m 147 1235 l 349 1235 l 529 1072 l 357 1072 l 147 1235 z "},"É":{"ha":811,"x_min":109,"x_max":764,"o":"m 109 0 l 109 1021 l 753 1021 l 753 861 l 282 861 l 282 593 l 693 593 l 693 441 l 282 441 l 282 160 l 764 160 l 764 0 l 109 0 m 342 1072 l 522 1235 l 724 1235 l 514 1072 l 342 1072 z "},"Ê":{"ha":811,"x_min":109,"x_max":764,"o":"m 109 0 l 109 1021 l 753 1021 l 753 861 l 282 861 l 282 593 l 693 593 l 693 441 l 282 441 l 282 160 l 764 160 l 764 0 l 109 0 m 212 1071 l 443 1279 l 673 1071 l 530 1071 l 443 1149 l 354 1071 l 212 1071 z "},"Ë":{"ha":811,"x_min":109,"x_max":764,"o":"m 109 0 l 109 1021 l 753 1021 l 753 861 l 282 861 l 282 593 l 693 593 l 693 441 l 282 441 l 282 160 l 764 160 l 764 0 l 109 0 m 233 1156 q 257 1217 233 1193 q 318 1242 281 1242 q 380 1218 355 1242 q 404 1156 404 1194 q 380 1095 404 1119 q 318 1071 355 1071 q 257 1095 281 1071 q 233 1156 233 1119 m 484 1156 q 508 1217 484 1193 q 568 1242 532 1242 q 630 1218 606 1242 q 654 1156 654 1194 q 630 1095 654 1119 q 568 1071 606 1071 q 508 1095 532 1071 q 484 1156 484 1119 z "},"Ì":{"ha":390,"x_min":-100,"x_max":282,"o":"m -100 1235 l 102 1235 l 282 1072 l 110 1072 l -100 1235 m 109 0 l 109 1021 l 282 1021 l 282 0 l 109 0 z "},"Í":{"ha":390,"x_min":92,"x_max":473,"o":"m 92 1072 l 272 1235 l 473 1235 l 264 1072 l 92 1072 m 109 0 l 109 1021 l 282 1021 l 282 0 l 109 0 z "},"Î":{"ha":390,"x_min":-35,"x_max":427,"o":"m -35 1071 l 196 1279 l 427 1071 l 283 1071 l 196 1149 l 107 1071 l -35 1071 m 109 0 l 109 1021 l 282 1021 l 282 0 l 109 0 z "},"Ï":{"ha":390,"x_min":-14,"x_max":407,"o":"m -14 1156 q 10 1217 -14 1193 q 71 1242 34 1242 q 133 1218 109 1242 q 157 1156 157 1194 q 132 1095 157 1119 q 71 1071 108 1071 q 10 1095 34 1071 q -14 1156 -14 1119 m 109 0 l 109 1021 l 282 1021 l 282 0 l 109 0 m 236 1156 q 260 1217 236 1193 q 321 1242 284 1242 q 382 1218 358 1242 q 407 1156 407 1194 q 382 1095 407 1119 q 321 1071 358 1071 q 260 1095 284 1071 q 236 1156 236 1119 z "},"Ð":{"ha":1044,"x_min":14,"x_max":1000,"o":"m 14 468 l 14 582 l 132 582 l 132 1021 l 447 1021 q 854 887 708 1021 q 1000 511 1000 753 q 855 135 1000 269 q 447 0 709 0 l 132 0 l 132 468 l 14 468 m 306 160 l 443 160 q 727 252 628 160 q 825 511 825 343 q 726 769 825 678 q 443 860 627 860 l 306 860 l 306 582 l 457 582 l 457 468 l 306 468 l 306 160 z "},"Ñ":{"ha":1018,"x_min":109,"x_max":909,"o":"m 109 0 l 109 1039 l 114 1039 l 736 389 l 736 1021 l 909 1021 l 909 -18 l 904 -18 l 282 633 l 282 0 l 109 0 m 273 1076 q 316 1227 273 1177 q 425 1278 359 1278 q 480 1267 456 1278 q 519 1241 505 1257 q 546 1211 534 1226 q 572 1186 558 1196 q 602 1175 586 1175 q 644 1270 644 1175 l 743 1270 q 701 1120 743 1172 q 591 1068 658 1068 q 536 1079 559 1068 q 499 1104 513 1089 q 475 1134 486 1119 q 450 1160 464 1149 q 419 1171 436 1171 q 383 1147 393 1171 q 372 1076 372 1123 l 273 1076 z "},"Ò":{"ha":1124,"x_min":43,"x_max":1082,"o":"m 43 510 q 82 721 43 623 q 190 889 121 819 q 355 999 259 959 q 562 1039 452 1039 q 768 999 672 1039 q 933 889 865 959 q 1042 721 1002 819 q 1082 510 1082 623 q 1042 299 1082 397 q 933 131 1002 200 q 768 21 865 61 q 562 -18 672 -18 q 355 21 452 -18 q 190 131 259 61 q 82 298 121 200 q 43 510 43 397 m 316 775 q 268 723 316 775 q 220 510 220 671 q 316 245 220 349 q 562 142 412 142 q 809 245 712 142 q 905 510 905 349 q 809 775 905 671 q 562 879 712 879 q 316 775 412 879 m 265 1249 l 467 1249 l 647 1086 l 475 1086 l 265 1249 z "},"Ó":{"ha":1124,"x_min":43,"x_max":1082,"o":"m 43 510 q 82 721 43 623 q 190 889 121 819 q 355 999 259 959 q 562 1039 452 1039 q 768 999 672 1039 q 933 889 865 959 q 1042 721 1002 819 q 1082 510 1082 623 q 1042 299 1082 397 q 933 131 1002 200 q 768 21 865 61 q 562 -18 672 -18 q 355 21 452 -18 q 190 131 259 61 q 82 298 121 200 q 43 510 43 397 m 316 775 q 268 723 316 775 q 220 510 220 671 q 316 245 220 349 q 562 142 412 142 q 809 245 712 142 q 905 510 905 349 q 809 775 905 671 q 562 879 712 879 q 316 775 412 879 m 460 1086 l 640 1249 l 842 1249 l 632 1086 l 460 1086 z "},"Ô":{"ha":1124,"x_min":43,"x_max":1082,"o":"m 43 510 q 82 721 43 623 q 190 889 121 819 q 355 999 259 959 q 562 1039 452 1039 q 768 999 672 1039 q 933 889 865 959 q 1042 721 1002 819 q 1082 510 1082 623 q 1042 299 1082 397 q 933 131 1002 200 q 768 21 865 61 q 562 -18 672 -18 q 355 21 452 -18 q 190 131 259 61 q 82 298 121 200 q 43 510 43 397 m 316 775 q 268 723 316 775 q 220 510 220 671 q 316 245 220 349 q 562 142 412 142 q 809 245 712 142 q 905 510 905 349 q 809 775 905 671 q 562 879 712 879 q 316 775 412 879 m 330 1084 l 561 1293 l 791 1084 l 648 1084 l 561 1162 l 472 1084 l 330 1084 z "},"Õ":{"ha":1124,"x_min":43,"x_max":1082,"o":"m 43 510 q 82 721 43 623 q 190 889 121 819 q 355 999 259 959 q 562 1039 452 1039 q 768 999 672 1039 q 933 889 865 959 q 1042 721 1002 819 q 1082 510 1082 623 q 1042 299 1082 397 q 933 131 1002 200 q 768 21 865 61 q 562 -18 672 -18 q 355 21 452 -18 q 190 131 259 61 q 82 298 121 200 q 43 510 43 397 m 316 775 q 268 723 316 775 q 220 510 220 671 q 316 245 220 349 q 562 142 412 142 q 809 245 712 142 q 905 510 905 349 q 809 775 905 671 q 562 879 712 879 q 316 775 412 879 m 326 1090 q 369 1241 326 1191 q 478 1292 412 1292 q 533 1281 509 1292 q 572 1256 557 1271 q 599 1225 587 1240 q 625 1199 611 1210 q 654 1189 639 1189 q 697 1283 697 1189 l 796 1283 q 753 1134 796 1185 q 644 1082 711 1082 q 589 1092 612 1082 q 552 1118 566 1103 q 528 1148 539 1133 q 503 1174 517 1164 q 472 1185 489 1185 q 436 1161 446 1185 q 425 1090 425 1137 l 326 1090 z "},"Ö":{"ha":1124,"x_min":43,"x_max":1082,"o":"m 43 510 q 82 721 43 623 q 190 889 121 819 q 355 999 259 959 q 562 1039 452 1039 q 768 999 672 1039 q 933 889 865 959 q 1042 721 1002 819 q 1082 510 1082 623 q 1042 299 1082 397 q 933 131 1002 200 q 768 21 865 61 q 562 -18 672 -18 q 355 21 452 -18 q 190 131 259 61 q 82 298 121 200 q 43 510 43 397 m 316 775 q 268 723 316 775 q 220 510 220 671 q 316 245 220 349 q 562 142 412 142 q 809 245 712 142 q 905 510 905 349 q 809 775 905 671 q 562 879 712 879 q 316 775 412 879 m 351 1169 q 375 1231 351 1206 q 436 1255 399 1255 q 498 1231 473 1255 q 522 1169 522 1207 q 498 1108 522 1133 q 436 1084 473 1084 q 375 1108 399 1084 q 351 1169 351 1133 m 602 1169 q 626 1231 602 1206 q 686 1255 650 1255 q 748 1231 724 1255 q 772 1169 772 1207 q 748 1108 772 1133 q 686 1084 724 1084 q 626 1108 650 1084 q 602 1169 602 1133 z "},"×":{"ha":655,"x_min":57,"x_max":599,"o":"m 57 322 l 220 486 l 57 647 l 165 755 l 328 595 l 490 757 l 599 648 l 435 486 l 599 322 l 490 214 l 328 378 l 165 214 l 57 322 z "},"Ø":{"ha":1124,"x_min":43,"x_max":1082,"o":"m 43 510 q 82 721 43 623 q 190 889 121 819 q 355 999 259 959 q 562 1039 452 1039 q 758 1003 668 1039 l 829 1132 l 979 1132 l 873 940 q 1026 756 971 868 q 1082 510 1082 644 q 1042 299 1082 397 q 933 131 1002 200 q 768 21 865 61 q 562 -18 672 -18 q 367 17 461 -18 l 297 -111 l 146 -111 l 250 79 q 98 262 153 150 q 43 510 43 375 m 220 510 q 249 350 220 422 q 332 228 278 277 l 679 860 q 562 879 623 879 q 316 775 412 879 q 220 510 220 671 m 446 160 q 562 142 499 142 q 809 245 712 142 q 905 510 905 349 q 876 668 905 596 q 791 791 846 741 l 446 160 z "},"Ù":{"ha":960,"x_min":96,"x_max":864,"o":"m 96 363 l 96 1021 l 269 1021 l 269 374 q 323 204 269 267 q 481 142 378 142 q 636 204 583 142 q 690 374 690 267 l 690 1021 l 864 1021 l 864 363 q 765 84 864 187 q 481 -18 666 -18 q 195 84 295 -18 q 96 363 96 187 m 183 1235 l 385 1235 l 566 1072 l 393 1072 l 183 1235 z "},"Ú":{"ha":960,"x_min":96,"x_max":864,"o":"m 96 363 l 96 1021 l 269 1021 l 269 374 q 323 204 269 267 q 481 142 378 142 q 636 204 583 142 q 690 374 690 267 l 690 1021 l 864 1021 l 864 363 q 765 84 864 187 q 481 -18 666 -18 q 195 84 295 -18 q 96 363 96 187 m 378 1072 l 558 1235 l 760 1235 l 550 1072 l 378 1072 z "},"Û":{"ha":960,"x_min":96,"x_max":864,"o":"m 96 363 l 96 1021 l 269 1021 l 269 374 q 323 204 269 267 q 481 142 378 142 q 636 204 583 142 q 690 374 690 267 l 690 1021 l 864 1021 l 864 363 q 765 84 864 187 q 481 -18 666 -18 q 195 84 295 -18 q 96 363 96 187 m 249 1071 l 479 1279 l 710 1071 l 567 1071 l 479 1149 l 390 1071 l 249 1071 z "},"Ü":{"ha":960,"x_min":96,"x_max":864,"o":"m 96 363 l 96 1021 l 269 1021 l 269 374 q 323 204 269 267 q 481 142 378 142 q 636 204 583 142 q 690 374 690 267 l 690 1021 l 864 1021 l 864 363 q 765 84 864 187 q 481 -18 666 -18 q 195 84 295 -18 q 96 363 96 187 m 269 1156 q 293 1217 269 1193 q 354 1242 317 1242 q 416 1218 392 1242 q 440 1156 440 1194 q 416 1095 440 1119 q 354 1071 391 1071 q 293 1095 317 1071 q 269 1156 269 1119 m 519 1156 q 544 1217 519 1193 q 604 1242 568 1242 q 666 1218 642 1242 q 690 1156 690 1194 q 666 1095 690 1119 q 604 1071 642 1071 q 544 1095 568 1071 q 519 1156 519 1119 z "},"Ý":{"ha":940,"x_min":8,"x_max":932,"o":"m 8 1019 l 210 1019 l 469 597 l 729 1019 l 932 1019 l 557 425 l 557 0 l 383 0 l 383 422 l 8 1019 m 367 1072 l 547 1235 l 749 1235 l 539 1072 l 367 1072 z "},"Þ":{"ha":811,"x_min":109,"x_max":774,"o":"m 109 0 l 109 1021 l 282 1021 l 282 843 l 446 843 q 570 823 511 843 q 674 766 629 803 q 747 673 720 730 q 774 547 774 616 q 747 421 774 478 q 674 328 720 364 q 570 271 629 291 q 446 252 511 252 l 282 252 l 282 0 l 109 0 m 282 401 l 431 401 q 550 440 503 401 q 597 547 597 479 q 550 653 597 614 q 431 692 503 692 l 282 692 l 282 401 z "},"ß":{"ha":905,"x_min":109,"x_max":827,"o":"m 109 0 l 109 711 q 154 885 109 810 q 275 1000 199 961 q 443 1039 351 1039 q 671 958 585 1039 q 758 750 758 877 q 727 632 758 681 q 644 557 695 583 q 709 526 679 546 q 767 475 740 507 q 811 398 795 444 q 827 294 827 351 q 736 67 827 153 q 492 -18 646 -18 q 350 12 406 -18 l 382 161 q 486 134 430 134 q 604 177 557 134 q 650 297 650 221 q 617 396 650 355 q 525 453 585 436 q 415 468 473 468 l 415 595 q 507 618 464 595 q 583 737 583 655 q 540 847 583 806 q 435 889 496 889 q 320 847 362 889 q 278 721 278 804 l 278 0 l 109 0 z "},"à":{"ha":833,"x_min":39,"x_max":732,"o":"m 39 350 q 127 612 39 509 q 358 714 216 714 q 488 687 433 714 q 574 618 543 661 l 582 700 l 732 700 l 732 0 l 582 0 l 574 82 q 488 13 543 39 q 358 -14 433 -14 q 127 89 216 -14 q 39 350 39 191 m 111 989 l 302 989 l 493 799 l 338 799 l 111 989 m 260 508 q 234 478 260 508 q 208 350 208 448 q 260 193 208 252 q 395 134 313 134 q 566 237 500 134 l 566 463 q 395 567 500 567 q 260 508 313 567 z "},"á":{"ha":833,"x_min":39,"x_max":732,"o":"m 39 350 q 127 612 39 509 q 358 714 216 714 q 488 687 433 714 q 574 618 543 661 l 582 700 l 732 700 l 732 0 l 582 0 l 574 82 q 488 13 543 39 q 358 -14 433 -14 q 127 89 216 -14 q 39 350 39 191 m 260 508 q 234 478 260 508 q 208 350 208 448 q 260 193 208 252 q 395 134 313 134 q 566 237 500 134 l 566 463 q 395 567 500 567 q 260 508 313 567 m 317 799 l 505 989 l 699 989 l 472 799 l 317 799 z "},"â":{"ha":833,"x_min":39,"x_max":732,"o":"m 39 350 q 127 612 39 509 q 358 714 216 714 q 488 687 433 714 q 574 618 543 661 l 582 700 l 732 700 l 732 0 l 582 0 l 574 82 q 488 13 543 39 q 358 -14 433 -14 q 127 89 216 -14 q 39 350 39 191 m 186 799 l 408 1047 l 631 799 l 492 799 l 408 885 l 323 799 l 186 799 m 260 508 q 234 478 260 508 q 208 350 208 448 q 260 193 208 252 q 395 134 313 134 q 566 237 500 134 l 566 463 q 395 567 500 567 q 260 508 313 567 z "},"ã":{"ha":833,"x_min":39,"x_max":732,"o":"m 39 350 q 127 612 39 509 q 358 714 216 714 q 488 687 433 714 q 574 618 543 661 l 582 700 l 732 700 l 732 0 l 582 0 l 574 82 q 488 13 543 39 q 358 -14 433 -14 q 127 89 216 -14 q 39 350 39 191 m 174 802 q 216 956 174 904 q 325 1007 258 1007 q 380 997 355 1007 q 419 971 404 986 q 446 940 433 956 q 472 915 458 925 q 501 904 486 904 q 545 999 545 904 l 643 999 q 600 846 643 899 q 492 793 557 793 q 436 803 460 793 q 400 829 413 814 q 375 860 387 844 q 350 885 364 875 q 319 896 336 896 q 272 802 272 896 l 174 802 m 260 508 q 234 478 260 508 q 208 350 208 448 q 260 193 208 252 q 395 134 313 134 q 566 237 500 134 l 566 463 q 395 567 500 567 q 260 508 313 567 z "},"ä":{"ha":833,"x_min":39,"x_max":732,"o":"m 39 350 q 127 612 39 509 q 358 714 216 714 q 488 687 433 714 q 574 618 543 661 l 582 700 l 732 700 l 732 0 l 582 0 l 574 82 q 488 13 543 39 q 358 -14 433 -14 q 127 89 216 -14 q 39 350 39 191 m 199 896 q 223 957 199 932 q 283 981 247 981 q 345 957 321 981 q 370 896 370 932 q 346 834 370 859 q 283 810 321 810 q 223 834 247 810 q 199 896 199 859 m 260 508 q 234 478 260 508 q 208 350 208 448 q 260 193 208 252 q 395 134 313 134 q 566 237 500 134 l 566 463 q 395 567 500 567 q 260 508 313 567 m 449 896 q 473 957 449 932 q 533 981 496 981 q 595 957 570 981 q 619 896 619 932 q 595 834 619 859 q 533 810 571 810 q 473 834 496 810 q 449 896 449 859 z "},"å":{"ha":833,"x_min":39,"x_max":732,"o":"m 39 350 q 127 612 39 509 q 358 714 216 714 q 488 687 433 714 q 574 618 543 661 l 582 700 l 732 700 l 732 0 l 582 0 l 574 82 q 488 13 543 39 q 358 -14 433 -14 q 127 89 216 -14 q 39 350 39 191 m 260 508 q 234 478 260 508 q 208 350 208 448 q 260 193 208 252 q 395 134 313 134 q 566 237 500 134 l 566 463 q 395 567 500 567 q 260 508 313 567 m 249 947 q 294 1061 249 1016 q 408 1107 340 1107 q 523 1061 477 1107 q 568 947 568 1016 q 523 836 568 880 q 408 791 477 791 q 294 836 340 791 q 249 947 249 880 m 343 947 q 362 901 343 920 q 408 882 381 882 q 455 901 436 882 q 475 947 475 920 q 455 997 475 977 q 408 1017 436 1017 q 362 997 381 1017 q 343 947 343 977 z "},"æ":{"ha":1314,"x_min":39,"x_max":1268,"o":"m 39 350 q 127 612 39 509 q 358 714 216 714 q 488 687 433 714 q 574 618 543 661 l 582 700 l 724 700 l 730 619 q 947 714 815 714 q 1123 666 1049 714 q 1232 538 1196 618 q 1268 354 1268 458 l 1268 298 l 760 298 q 815 170 768 214 q 958 126 863 126 q 1062 149 1015 126 q 1137 208 1109 171 l 1250 113 q 961 -14 1143 -14 q 820 12 880 -14 q 729 81 760 38 l 722 0 l 582 0 l 574 82 q 488 13 543 39 q 358 -14 433 -14 q 127 89 216 -14 q 39 350 39 191 m 260 508 q 234 478 260 508 q 208 350 208 448 q 260 193 208 252 q 395 134 313 134 q 566 237 500 134 l 566 463 q 395 567 500 567 q 260 508 313 567 m 758 418 l 1103 418 q 1055 535 1099 490 q 933 581 1010 581 q 814 539 863 581 q 758 418 766 497 z "},"ç":{"ha":704,"x_min":39,"x_max":684,"o":"m 39 350 q 138 612 39 509 q 397 714 237 714 q 681 559 581 714 l 559 468 q 399 568 502 568 q 258 507 308 568 q 208 350 208 446 q 259 194 208 255 q 400 132 311 132 q 564 233 503 132 l 684 140 q 408 -14 588 -9 l 399 -72 q 492 -112 458 -77 q 526 -205 526 -146 q 483 -313 526 -274 q 368 -353 440 -353 q 229 -296 276 -353 l 289 -227 q 364 -264 321 -264 q 407 -249 391 -264 q 422 -208 422 -235 q 363 -154 422 -158 q 296 -163 329 -151 l 292 -157 l 319 -5 q 115 115 191 18 q 39 350 39 212 z "},"è":{"ha":748,"x_min":39,"x_max":703,"o":"m 39 349 q 135 611 39 507 q 382 714 231 714 q 523 686 460 714 q 623 609 585 658 q 682 495 662 559 q 703 357 703 431 l 703 298 l 208 298 q 260 171 211 215 q 396 126 309 126 q 499 149 454 126 q 570 207 544 171 l 685 113 q 395 -14 581 -14 q 207 33 288 -14 q 82 162 125 80 q 39 349 39 244 m 81 989 l 272 989 l 463 799 l 307 799 l 81 989 m 208 418 l 539 418 q 494 536 536 492 q 379 581 452 581 q 259 536 306 581 q 208 418 212 491 z "},"é":{"ha":748,"x_min":39,"x_max":703,"o":"m 39 349 q 135 611 39 507 q 382 714 231 714 q 523 686 460 714 q 623 609 585 658 q 682 495 662 559 q 703 357 703 431 l 703 298 l 208 298 q 260 171 211 215 q 396 126 309 126 q 499 149 454 126 q 570 207 544 171 l 685 113 q 395 -14 581 -14 q 207 33 288 -14 q 82 162 125 80 q 39 349 39 244 m 208 418 l 539 418 q 494 536 536 492 q 379 581 452 581 q 259 536 306 581 q 208 418 212 491 m 289 799 l 478 989 l 671 989 l 444 799 l 289 799 z "},"ê":{"ha":748,"x_min":39,"x_max":703,"o":"m 39 349 q 135 611 39 507 q 382 714 231 714 q 523 686 460 714 q 623 609 585 658 q 682 495 662 559 q 703 357 703 431 l 703 298 l 208 298 q 260 171 211 215 q 396 126 309 126 q 499 149 454 126 q 570 207 544 171 l 685 113 q 395 -14 581 -14 q 207 33 288 -14 q 82 162 125 80 q 39 349 39 244 m 157 799 l 379 1047 l 602 799 l 463 799 l 379 885 l 294 799 l 157 799 m 208 418 l 539 418 q 494 536 536 492 q 379 581 452 581 q 259 536 306 581 q 208 418 212 491 z "},"ë":{"ha":748,"x_min":39,"x_max":703,"o":"m 39 349 q 135 611 39 507 q 382 714 231 714 q 523 686 460 714 q 623 609 585 658 q 682 495 662 559 q 703 357 703 431 l 703 298 l 208 298 q 260 171 211 215 q 396 126 309 126 q 499 149 454 126 q 570 207 544 171 l 685 113 q 395 -14 581 -14 q 207 33 288 -14 q 82 162 125 80 q 39 349 39 244 m 170 896 q 194 957 170 932 q 254 981 218 981 q 316 957 292 981 q 340 896 340 932 q 316 834 340 859 q 254 810 292 810 q 194 834 218 810 q 170 896 170 859 m 208 418 l 539 418 q 494 536 536 492 q 379 581 452 581 q 259 536 306 581 q 208 418 212 491 m 419 896 q 443 957 419 932 q 504 981 467 981 q 566 957 541 981 q 590 896 590 932 q 566 834 590 859 q 504 810 541 810 q 443 834 467 810 q 419 896 419 859 z "},"ì":{"ha":369,"x_min":-113,"x_max":269,"o":"m -113 989 l 79 989 l 269 799 l 114 799 l -113 989 m 102 0 l 102 700 l 268 700 l 268 0 l 102 0 z "},"í":{"ha":369,"x_min":93,"x_max":475,"o":"m 93 799 l 282 989 l 475 989 l 249 799 l 93 799 m 102 0 l 102 700 l 268 700 l 268 0 l 102 0 z "},"î":{"ha":369,"x_min":-36,"x_max":408,"o":"m -36 799 l 186 1047 l 408 799 l 269 799 l 186 885 l 102 799 l -36 799 m 102 0 l 102 700 l 268 700 l 268 0 l 102 0 z "},"ï":{"ha":369,"x_min":-24,"x_max":397,"o":"m -24 896 q 0 957 -24 932 q 61 981 24 981 q 123 957 98 981 q 147 896 147 932 q 123 834 147 859 q 61 810 99 810 q 0 834 24 810 q -24 896 -24 859 m 102 0 l 102 700 l 268 700 l 268 0 l 102 0 m 227 896 q 251 957 227 932 q 311 981 275 981 q 373 957 349 981 q 397 896 397 932 q 373 834 397 859 q 311 810 349 810 q 251 834 275 810 q 227 896 227 859 z "},"ð":{"ha":798,"x_min":49,"x_max":757,"o":"m 49 329 q 94 505 49 427 q 219 629 138 584 q 399 675 299 674 l 330 781 l 89 781 l 89 904 l 252 904 l 154 1055 l 357 1055 l 454 904 l 697 904 l 697 781 l 533 781 l 684 546 q 757 329 757 453 q 656 83 757 180 q 401 -14 555 -14 q 149 83 248 -14 q 49 329 49 180 m 215 329 q 268 183 215 241 q 401 125 321 125 q 536 183 483 125 q 590 329 590 241 q 536 477 590 418 q 401 536 483 536 q 268 477 321 536 q 215 329 215 418 z "},"ñ":{"ha":818,"x_min":102,"x_max":734,"o":"m 102 0 l 102 700 l 252 700 l 258 619 q 344 687 290 661 q 469 714 398 714 q 665 632 595 714 q 734 410 734 549 l 734 0 l 567 0 l 567 400 q 529 514 567 471 q 427 557 490 557 q 268 458 332 557 l 268 0 l 102 0 m 182 802 q 224 956 182 904 q 334 1007 267 1007 q 389 997 364 1007 q 428 971 413 986 q 454 940 442 956 q 480 915 467 925 q 510 904 494 904 q 553 999 553 904 l 652 999 q 609 846 652 899 q 500 793 566 793 q 445 803 468 793 q 408 829 421 814 q 384 860 395 844 q 358 885 372 875 q 328 896 345 896 q 291 872 302 896 q 281 802 281 848 l 182 802 z "},"ò":{"ha":806,"x_min":39,"x_max":766,"o":"m 39 349 q 142 610 39 507 q 403 714 245 714 q 663 610 560 714 q 766 349 766 507 q 720 162 766 245 q 590 33 673 79 q 403 -14 507 -14 q 142 89 245 -14 q 39 349 39 192 m 103 989 l 294 989 l 485 799 l 329 799 l 103 989 m 208 349 q 263 194 208 255 q 403 134 318 134 q 543 194 488 134 q 599 349 599 255 q 543 505 599 443 q 403 567 488 567 q 263 505 319 567 q 208 349 208 444 z "},"ó":{"ha":806,"x_min":39,"x_max":766,"o":"m 39 349 q 142 610 39 507 q 403 714 245 714 q 663 610 560 714 q 766 349 766 507 q 720 162 766 245 q 590 33 673 79 q 403 -14 507 -14 q 142 89 245 -14 q 39 349 39 192 m 208 349 q 263 194 208 255 q 403 134 318 134 q 543 194 488 134 q 599 349 599 255 q 543 505 599 443 q 403 567 488 567 q 263 505 319 567 q 208 349 208 444 m 311 799 l 500 989 l 693 989 l 467 799 l 311 799 z "},"ô":{"ha":806,"x_min":39,"x_max":766,"o":"m 39 349 q 142 610 39 507 q 403 714 245 714 q 663 610 560 714 q 766 349 766 507 q 720 162 766 245 q 590 33 673 79 q 403 -14 507 -14 q 142 89 245 -14 q 39 349 39 192 m 179 799 l 401 1047 l 624 799 l 485 799 l 401 885 l 317 799 l 179 799 m 208 349 q 263 194 208 255 q 403 134 318 134 q 543 194 488 134 q 599 349 599 255 q 543 505 599 443 q 403 567 488 567 q 263 505 319 567 q 208 349 208 444 z "},"õ":{"ha":806,"x_min":39,"x_max":766,"o":"m 39 349 q 142 610 39 507 q 403 714 245 714 q 663 610 560 714 q 766 349 766 507 q 720 162 766 245 q 590 33 673 79 q 403 -14 507 -14 q 142 89 245 -14 q 39 349 39 192 m 167 802 q 209 956 167 904 q 318 1007 252 1007 q 373 997 349 1007 q 412 971 397 986 q 439 940 427 956 q 465 915 451 925 q 494 904 479 904 q 538 999 538 904 l 636 999 q 593 846 636 899 q 485 793 551 793 q 430 803 453 793 q 393 829 406 814 q 369 860 380 844 q 343 885 357 875 q 313 896 330 896 q 265 802 265 896 l 167 802 m 208 349 q 263 194 208 255 q 403 134 318 134 q 543 194 488 134 q 599 349 599 255 q 543 505 599 443 q 403 567 488 567 q 263 505 319 567 q 208 349 208 444 z "},"ö":{"ha":806,"x_min":39,"x_max":766,"o":"m 39 349 q 142 610 39 507 q 403 714 245 714 q 663 610 560 714 q 766 349 766 507 q 720 162 766 245 q 590 33 673 79 q 403 -14 507 -14 q 142 89 245 -14 q 39 349 39 192 m 192 896 q 216 957 192 932 q 277 981 240 981 q 338 957 314 981 q 363 896 363 932 q 339 834 363 859 q 277 810 315 810 q 216 834 240 810 q 192 896 192 859 m 208 349 q 263 194 208 255 q 403 134 318 134 q 543 194 488 134 q 599 349 599 255 q 543 505 599 443 q 403 567 488 567 q 263 505 319 567 q 208 349 208 444 m 441 896 q 466 957 441 932 q 526 981 490 981 q 588 957 564 981 q 612 896 612 932 q 588 834 612 859 q 526 810 564 810 q 466 834 490 810 q 441 896 441 859 z "},"÷":{"ha":691,"x_min":52,"x_max":639,"o":"m 52 410 l 52 562 l 639 562 l 639 410 l 52 410 m 273 133 q 258 147 273 133 q 244 205 244 161 q 273 278 244 250 q 345 307 301 307 q 417 278 389 307 q 446 205 446 250 q 417 133 446 161 q 345 104 389 104 q 273 133 301 104 m 244 762 q 273 836 244 807 q 345 865 301 865 q 417 836 389 865 q 446 762 446 807 q 417 691 446 719 q 345 663 389 663 q 273 691 301 663 q 244 762 244 720 z "},"ø":{"ha":806,"x_min":39,"x_max":766,"o":"m 39 349 q 142 610 39 507 q 403 714 245 714 q 534 692 469 714 l 591 798 l 700 798 l 619 647 q 727 520 688 598 q 766 349 766 443 q 720 162 766 245 q 590 33 673 79 q 403 -14 507 -14 q 272 7 338 -14 l 216 -97 l 107 -97 l 187 52 q 78 177 117 100 q 39 349 39 254 m 200 349 q 260 184 200 248 l 467 566 q 403 576 433 576 q 257 512 315 576 q 200 349 200 447 m 340 134 q 403 123 370 123 q 548 188 490 123 q 606 349 606 252 q 546 513 606 449 l 340 134 z "},"ù":{"ha":809,"x_min":85,"x_max":708,"o":"m 85 289 l 85 700 l 252 700 l 252 297 q 286 186 252 229 q 380 144 321 144 q 472 170 435 144 q 542 241 510 196 l 542 700 l 708 700 l 708 0 l 558 0 l 550 81 q 336 -14 479 -14 q 151 68 216 -14 q 85 289 85 149 m 97 989 l 289 989 l 479 799 l 323 799 l 97 989 z "},"ú":{"ha":809,"x_min":85,"x_max":708,"o":"m 85 289 l 85 700 l 252 700 l 252 297 q 286 186 252 229 q 380 144 321 144 q 472 170 435 144 q 542 241 510 196 l 542 700 l 708 700 l 708 0 l 558 0 l 550 81 q 336 -14 479 -14 q 151 68 216 -14 q 85 289 85 149 m 302 799 l 492 989 l 685 989 l 458 799 l 302 799 z "},"û":{"ha":809,"x_min":85,"x_max":708,"o":"m 85 289 l 85 700 l 252 700 l 252 297 q 286 186 252 229 q 380 144 321 144 q 472 170 435 144 q 542 241 510 196 l 542 700 l 708 700 l 708 0 l 558 0 l 550 81 q 336 -14 479 -14 q 151 68 216 -14 q 85 289 85 149 m 174 799 l 396 1047 l 618 799 l 479 799 l 396 885 l 311 799 l 174 799 z "},"ü":{"ha":809,"x_min":85,"x_max":708,"o":"m 85 289 l 85 700 l 252 700 l 252 297 q 286 186 252 229 q 380 144 321 144 q 472 170 435 144 q 542 241 510 196 l 542 700 l 708 700 l 708 0 l 558 0 l 550 81 q 336 -14 479 -14 q 151 68 216 -14 q 85 289 85 149 m 184 896 q 209 957 184 932 q 269 981 233 981 q 331 957 307 981 q 355 896 355 932 q 331 834 355 859 q 269 810 307 810 q 209 834 233 810 q 184 896 184 859 m 435 896 q 459 957 435 932 q 519 981 483 981 q 581 957 557 981 q 606 896 606 932 q 582 834 606 859 q 519 810 557 810 q 459 834 483 810 q 435 896 435 859 z "},"ý":{"ha":783,"x_min":18,"x_max":766,"o":"m 18 700 l 204 700 l 392 309 l 579 700 l 766 700 l 240 -319 l 49 -319 l 301 143 l 18 700 m 286 799 l 475 989 l 668 989 l 441 799 l 286 799 z "},"þ":{"ha":830,"x_min":102,"x_max":793,"o":"m 102 -319 l 102 1055 l 268 1055 l 268 631 q 475 714 340 714 q 704 612 616 714 q 793 350 793 509 q 753 163 793 246 q 641 34 713 81 q 475 -14 568 -14 q 268 69 337 -14 l 268 -319 l 102 -319 m 268 237 q 439 134 330 134 q 573 193 521 134 q 625 350 625 252 q 573 508 625 448 q 439 567 521 567 q 268 463 331 567 l 268 237 z "},"ÿ":{"ha":783,"x_min":18,"x_max":766,"o":"m 18 700 l 204 700 l 392 309 l 579 700 l 766 700 l 240 -319 l 49 -319 l 301 143 l 18 700 m 167 896 q 191 957 167 932 q 252 981 215 981 q 313 957 289 981 q 338 896 338 932 q 313 834 338 859 q 252 810 289 810 q 191 834 215 810 q 167 896 167 859 m 416 896 q 440 957 416 932 q 501 981 465 981 q 563 957 538 981 q 587 896 587 932 q 563 834 587 859 q 501 810 538 810 q 440 834 465 810 q 416 896 416 859 z "},"Œ":{"ha":1604,"x_min":43,"x_max":1563,"o":"m 43 510 q 82 721 43 623 q 190 889 121 819 q 355 999 259 959 q 562 1039 452 1039 q 907 892 768 1039 l 907 1021 l 1552 1021 l 1552 861 l 1080 861 l 1080 593 l 1492 593 l 1492 441 l 1080 441 l 1080 160 l 1563 160 l 1563 0 l 907 0 l 907 127 q 753 20 840 58 q 562 -18 665 -18 q 355 21 452 -18 q 190 131 259 61 q 82 298 121 200 q 43 510 43 397 m 316 775 q 268 723 316 775 q 220 510 220 671 q 316 244 220 349 q 562 140 412 140 q 809 244 712 140 q 905 510 905 349 q 809 775 905 671 q 562 879 712 879 q 316 775 412 879 z "},"œ":{"ha":1311,"x_min":39,"x_max":1265,"o":"m 39 349 q 142 610 39 507 q 403 714 245 714 q 559 682 488 714 q 681 591 631 650 q 795 682 728 650 q 945 714 863 714 q 1085 686 1023 714 q 1186 609 1147 658 q 1245 495 1225 559 q 1265 357 1265 431 l 1265 298 l 771 298 q 822 171 774 215 q 958 126 871 126 q 1061 149 1017 126 q 1132 207 1106 171 l 1247 113 q 957 -14 1143 -14 q 798 18 869 -14 q 681 107 728 50 q 559 18 631 50 q 403 -14 487 -14 q 142 89 245 -14 q 39 349 39 192 m 208 349 q 263 194 208 255 q 403 134 318 134 q 543 194 488 134 q 597 349 597 255 q 542 505 597 444 q 403 567 487 567 q 263 505 319 567 q 208 349 208 444 m 771 418 l 1101 418 q 1057 536 1098 492 q 942 581 1015 581 q 822 536 869 581 q 771 418 775 491 z "},"Ÿ":{"ha":940,"x_min":8,"x_max":932,"o":"m 8 1019 l 210 1019 l 469 597 l 729 1019 l 932 1019 l 557 425 l 557 0 l 383 0 l 383 422 l 8 1019 m 258 1156 q 282 1217 258 1193 q 343 1242 307 1242 q 405 1218 381 1242 q 429 1156 429 1194 q 405 1095 429 1119 q 343 1071 380 1071 q 282 1095 307 1071 q 258 1156 258 1119 m 509 1156 q 532 1217 509 1193 q 593 1242 556 1242 q 655 1218 631 1242 q 679 1156 679 1194 q 654 1095 679 1119 q 593 1071 630 1071 q 532 1095 556 1071 q 509 1156 509 1119 z "},"ˆ":{"ha":497,"x_min":26,"x_max":471,"o":"m 26 799 l 249 1047 l 471 799 l 332 799 l 249 885 l 164 799 l 26 799 z "},"˜":{"ha":524,"x_min":26,"x_max":496,"o":"m 26 802 q 69 956 26 904 q 178 1007 111 1007 q 233 997 208 1007 q 272 971 257 986 q 298 940 286 956 q 325 915 311 925 q 354 904 338 904 q 397 999 397 904 l 496 999 q 453 846 496 899 q 345 793 410 793 q 289 803 313 793 q 253 829 266 814 q 228 860 239 844 q 203 885 217 875 q 172 896 189 896 q 125 802 125 896 l 26 802 z "}," ":{"ha":692,"x_min":0,"x_max":0,"o":""}," ":{"ha":1385,"x_min":0,"x_max":0,"o":""}," ":{"ha":692,"x_min":0,"x_max":0,"o":""}," ":{"ha":1385,"x_min":0,"x_max":0,"o":""}," ":{"ha":461,"x_min":0,"x_max":0,"o":""}," ":{"ha":346,"x_min":0,"x_max":0,"o":""}," ":{"ha":231,"x_min":0,"x_max":0,"o":""}," ":{"ha":231,"x_min":0,"x_max":0,"o":""}," ":{"ha":173,"x_min":0,"x_max":0,"o":""}," ":{"ha":277,"x_min":0,"x_max":0,"o":""}," ":{"ha":77,"x_min":0,"x_max":0,"o":""},"‐":{"ha":602,"x_min":54,"x_max":549,"o":"m 54 282 l 54 436 l 549 436 l 549 282 l 54 282 z "},"‑":{"ha":602,"x_min":54,"x_max":549,"o":"m 54 282 l 54 436 l 549 436 l 549 282 l 54 282 z "},"‒":{"ha":602,"x_min":54,"x_max":549,"o":"m 54 282 l 54 436 l 549 436 l 549 282 l 54 282 z "},"–":{"ha":768,"x_min":54,"x_max":714,"o":"m 54 282 l 54 436 l 714 436 l 714 282 l 54 282 z "},"—":{"ha":1107,"x_min":54,"x_max":1054,"o":"m 54 282 l 54 436 l 1054 436 l 1054 282 l 54 282 z "},"‘":{"ha":273,"x_min":54,"x_max":204,"o":"m 54 799 q 75 864 54 831 l 199 1096 l 204 1096 l 204 696 q 164 688 180 688 q 86 720 117 688 q 54 799 54 752 z "},"’":{"ha":273,"x_min":68,"x_max":218,"o":"m 68 640 l 68 1042 q 109 1048 83 1048 q 187 1017 156 1048 q 218 939 218 986 q 197 872 218 906 l 74 640 l 68 640 z "},"‚":{"ha":273,"x_min":68,"x_max":218,"o":"m 68 182 q 109 191 87 191 q 187 159 156 191 q 218 79 218 127 q 197 14 218 47 l 74 -218 l 68 -218 l 68 182 z "},"“":{"ha":534,"x_min":54,"x_max":465,"o":"m 54 799 q 75 864 54 831 l 199 1096 l 204 1096 l 204 696 q 164 688 180 688 q 86 720 117 688 q 54 799 54 752 m 315 799 q 336 864 315 831 l 460 1096 l 465 1096 l 465 696 q 425 688 441 688 q 347 720 378 688 q 315 799 315 752 z "},"”":{"ha":534,"x_min":68,"x_max":479,"o":"m 68 640 l 68 1042 q 109 1048 83 1048 q 187 1017 156 1048 q 218 939 218 986 q 197 872 218 906 l 74 640 l 68 640 m 329 640 l 329 1042 q 370 1048 345 1048 q 449 1017 418 1048 q 479 939 479 986 q 458 872 479 906 l 335 640 l 329 640 z "},"„":{"ha":555,"x_min":68,"x_max":500,"o":"m 68 182 q 109 191 87 191 q 187 159 156 191 q 218 79 218 127 q 197 14 218 47 l 74 -218 l 68 -218 l 68 182 m 350 182 q 390 191 370 191 q 469 159 437 191 q 500 79 500 127 q 479 14 500 46 l 355 -218 l 350 -218 l 350 182 z "},"•":{"ha":410,"x_min":46,"x_max":364,"o":"m 46 358 q 91 473 46 428 q 204 518 136 518 q 319 473 274 518 q 364 358 364 428 q 319 245 364 290 q 204 200 274 200 q 91 245 136 200 q 46 358 46 290 z "},"…":{"ha":1000,"x_min":52,"x_max":949,"o":"m 52 96 q 83 175 52 144 q 161 205 114 205 q 240 175 209 205 q 271 96 271 144 q 240 17 271 47 q 161 -14 209 -14 q 82 17 113 -14 q 52 96 52 48 m 390 96 q 421 175 390 144 q 500 205 452 205 q 579 175 548 205 q 610 96 610 144 q 579 17 610 48 q 500 -14 548 -14 q 421 17 452 -14 q 390 96 390 48 m 729 96 q 760 175 729 144 q 839 205 791 205 q 918 175 887 205 q 949 96 949 144 q 918 17 949 48 q 839 -14 887 -14 q 760 17 791 -14 q 729 96 729 48 z "}," ":{"ha":277,"x_min":0,"x_max":0,"o":""},"‹":{"ha":512,"x_min":21,"x_max":492,"o":"m 21 353 l 21 358 l 292 636 l 492 636 l 216 355 l 492 75 l 292 75 l 21 353 z "},"›":{"ha":512,"x_min":21,"x_max":492,"o":"m 21 75 l 296 355 l 21 636 l 221 636 l 492 358 l 492 353 l 221 75 l 21 75 z "}," ":{"ha":346,"x_min":0,"x_max":0,"o":""},"€":{"ha":919,"x_min":46,"x_max":885,"o":"m 46 335 l 46 446 l 135 446 q 134 510 134 467 q 136 579 134 557 l 46 579 l 46 690 l 153 690 q 303 947 193 855 q 570 1039 414 1039 q 746 1004 671 1039 q 880 905 821 970 l 778 785 q 570 888 695 888 q 425 836 486 888 q 335 690 364 785 l 596 690 l 596 579 l 313 579 q 310 510 310 557 q 313 446 310 465 l 596 446 l 596 335 l 334 335 q 424 185 363 238 q 571 132 486 132 q 782 236 696 132 l 885 115 q 571 -20 761 -20 q 303 74 414 -20 q 153 335 192 168 l 46 335 z "},"™":{"ha":1200,"x_min":32,"x_max":1149,"o":"m 32 903 l 32 1021 l 503 1021 l 503 903 l 329 903 l 329 498 l 205 498 l 205 903 l 32 903 m 585 498 l 585 1031 l 587 1031 l 865 676 l 1146 1031 l 1149 1031 l 1149 498 l 1026 498 l 1026 705 l 868 493 l 863 493 l 705 705 l 705 498 l 585 498 z "},"◼":{"ha":701,"x_min":0,"x_max":701,"o":"m 0 0 l 0 701 l 701 701 l 701 0 l 0 0 z "},"ﬁ":{"ha":884,"x_min":24,"x_max":803,"o":"m 24 558 l 24 700 l 147 700 l 147 787 q 218 980 147 905 q 406 1055 289 1055 q 532 1028 483 1055 l 486 889 q 414 908 460 908 q 341 877 368 908 q 315 791 315 845 l 315 700 l 486 700 l 486 558 l 315 558 l 315 0 l 147 0 l 147 558 l 24 558 m 625 850 q 611 864 625 850 q 596 924 596 879 q 625 997 596 968 q 699 1026 654 1026 q 773 997 743 1026 q 803 924 803 968 q 773 850 803 879 q 699 821 743 821 q 625 850 654 821 m 615 0 l 615 700 l 782 700 l 782 0 l 615 0 z "}}}
